<?xml version="1.0" encoding="UTF-8" standalone="no"?>
<svg viewBox="0 0 826.575 401.575"
 xmlns="http://www.w3.org/2000/svg" xmlns:xlink="http://www.w3.org/1999/xlink"  version="1.2" baseProfile="tiny">
<title>Plot Document</title>
<desc>Generated with Qt</desc>
<defs>
</defs>
<g fill="none" stroke="black" stroke-width="1" fill-rule="evenodd" stroke-linecap="square" stroke-linejoin="bevel" >

<g fill="none" stroke="#000000" stroke-opacity="1" stroke-width="1" stroke-linecap="square" stroke-linejoin="bevel" transform="matrix(0.885417,0,0,0.885417,0,0)"
font-family="Cantarell" font-size="12.9861" font-weight="400" font-style="normal" 
>
</g>

<g fill="none" stroke="#000000" stroke-opacity="1" stroke-width="1" stroke-linecap="square" stroke-linejoin="bevel" transform="matrix(0.885417,0,0,0.885417,0,0)"
font-family="Cantarell" font-size="12.9861" font-weight="400" font-style="normal" 
>
</g>

<g fill="#ffffff" fill-opacity="1" stroke="none" transform="matrix(0.885417,0,0,0.885417,0,0)"
font-family="Cantarell" font-size="12.9861" font-weight="400" font-style="normal" 
>
<rect x="28" y="44" width="900" height="364"/>
</g>

<g fill="none" stroke="#000000" stroke-opacity="1" stroke-width="1" stroke-linecap="square" stroke-linejoin="bevel" transform="matrix(0.885417,0,0,0.885417,0,0)"
font-family="Cantarell" font-size="12.9861" font-weight="400" font-style="normal" 
>
</g>

<g fill="none" stroke="#c0c0c0" stroke-opacity="1" stroke-dasharray="1,2" stroke-dashoffset="0" stroke-width="1" stroke-linecap="butt" stroke-linejoin="bevel" transform="matrix(0.885417,0,0,0.885417,0,0)"
font-family="Cantarell" font-size="12.9861" font-weight="400" font-style="normal" 
>
<polyline fill="none" vector-effect="non-scaling-stroke" points="72.95,44 72.95,407 " />
<polyline fill="none" vector-effect="non-scaling-stroke" points="117.9,44 117.9,407 " />
<polyline fill="none" vector-effect="non-scaling-stroke" points="162.85,44 162.85,407 " />
<polyline fill="none" vector-effect="non-scaling-stroke" points="207.8,44 207.8,407 " />
<polyline fill="none" vector-effect="non-scaling-stroke" points="297.7,44 297.7,407 " />
<polyline fill="none" vector-effect="non-scaling-stroke" points="342.65,44 342.65,407 " />
<polyline fill="none" vector-effect="non-scaling-stroke" points="387.6,44 387.6,407 " />
<polyline fill="none" vector-effect="non-scaling-stroke" points="432.55,44 432.55,407 " />
<polyline fill="none" vector-effect="non-scaling-stroke" points="522.45,44 522.45,407 " />
<polyline fill="none" vector-effect="non-scaling-stroke" points="567.4,44 567.4,407 " />
<polyline fill="none" vector-effect="non-scaling-stroke" points="612.35,44 612.35,407 " />
<polyline fill="none" vector-effect="non-scaling-stroke" points="657.3,44 657.3,407 " />
<polyline fill="none" vector-effect="non-scaling-stroke" points="747.2,44 747.2,407 " />
<polyline fill="none" vector-effect="non-scaling-stroke" points="792.15,44 792.15,407 " />
<polyline fill="none" vector-effect="non-scaling-stroke" points="837.1,44 837.1,407 " />
<polyline fill="none" vector-effect="non-scaling-stroke" points="882.05,44 882.05,407 " />
<polyline fill="none" vector-effect="non-scaling-stroke" points="28,388.85 927,388.85 " />
<polyline fill="none" vector-effect="non-scaling-stroke" points="28,352.55 927,352.55 " />
<polyline fill="none" vector-effect="non-scaling-stroke" points="28,316.25 927,316.25 " />
<polyline fill="none" vector-effect="non-scaling-stroke" points="28,279.95 927,279.95 " />
<polyline fill="none" vector-effect="non-scaling-stroke" points="28,243.65 927,243.65 " />
<polyline fill="none" vector-effect="non-scaling-stroke" points="28,207.35 927,207.35 " />
<polyline fill="none" vector-effect="non-scaling-stroke" points="28,171.05 927,171.05 " />
<polyline fill="none" vector-effect="non-scaling-stroke" points="28,134.75 927,134.75 " />
<polyline fill="none" vector-effect="non-scaling-stroke" points="28,98.45 927,98.45 " />
<polyline fill="none" vector-effect="non-scaling-stroke" points="28,62.15 927,62.15 " />
<polyline fill="none" vector-effect="non-scaling-stroke" points="28,370.7 927,370.7 " />
<polyline fill="none" vector-effect="non-scaling-stroke" points="28,298.1 927,298.1 " />
<polyline fill="none" vector-effect="non-scaling-stroke" points="28,225.5 927,225.5 " />
<polyline fill="none" vector-effect="non-scaling-stroke" points="28,152.9 927,152.9 " />
<polyline fill="none" vector-effect="non-scaling-stroke" points="28,80.3 927,80.3 " />
</g>

<g fill="none" stroke="#a0a0a4" stroke-opacity="1" stroke-width="1" stroke-linecap="butt" stroke-linejoin="bevel" transform="matrix(0.885417,0,0,0.885417,0,0)"
font-family="Cantarell" font-size="12.9861" font-weight="400" font-style="normal" 
>
<polyline fill="none" vector-effect="none" points="28,44 28,407 " />
<polyline fill="none" vector-effect="none" points="252.75,44 252.75,407 " />
<polyline fill="none" vector-effect="none" points="477.5,44 477.5,407 " />
<polyline fill="none" vector-effect="none" points="702.25,44 702.25,407 " />
<polyline fill="none" vector-effect="none" points="927,44 927,407 " />
<polyline fill="none" vector-effect="none" points="28,407 927,407 " />
<polyline fill="none" vector-effect="none" points="28,334.4 927,334.4 " />
<polyline fill="none" vector-effect="none" points="28,261.8 927,261.8 " />
<polyline fill="none" vector-effect="none" points="28,189.2 927,189.2 " />
<polyline fill="none" vector-effect="none" points="28,116.6 927,116.6 " />
<polyline fill="none" vector-effect="none" points="28,44 927,44 " />
</g>

<g fill="none" stroke="#000000" stroke-opacity="1" stroke-width="1" stroke-linecap="square" stroke-linejoin="bevel" transform="matrix(0.885417,0,0,0.885417,0,0)"
font-family="Cantarell" font-size="12.9861" font-weight="400" font-style="normal" 
>
</g>

<g fill="none" stroke="#000000" stroke-opacity="1" stroke-width="1" stroke-linecap="square" stroke-linejoin="bevel" transform="matrix(0.885417,0,0,0.885417,0,0)"
font-family="Cantarell" font-size="12.9861" font-weight="400" font-style="normal" 
>
</g>

<g fill="none" stroke="#ff0000" stroke-opacity="1" stroke-width="2" stroke-linecap="square" stroke-linejoin="bevel" transform="matrix(0.885417,0,0,0.885417,0,0)"
font-family="Cantarell" font-size="12.9861" font-weight="400" font-style="normal" 
>
<polyline fill="none" vector-effect="none" points="28,298.1 29.798,297.765 31.596,296.858 33.394,295.509 35.192,293.821 36.99,291.879 38.788,289.75 40.586,287.49 42.384,285.142 44.182,282.742 45.98,280.319 47.778,277.894 49.576,275.485 51.374,273.106 53.172,270.767 54.97,268.476 56.768,266.24 58.566,264.062 60.364,261.946 62.162,259.893 63.96,257.905 65.758,255.982 67.556,254.123 69.354,252.329 71.152,250.598 72.95,248.928 74.748,247.32 76.546,245.77 78.344,244.278 80.142,242.842 81.94,241.46 83.738,240.131 85.536,238.852 87.334,237.622 89.132,236.44 90.93,235.303 92.728,234.21 94.526,233.159 96.324,232.149 98.122,231.178 99.92,230.245 101.718,229.348 103.516,228.487 105.314,227.659 107.112,226.863 108.91,226.098 110.708,225.364 112.506,224.658 114.304,223.979 116.102,223.327 117.9,222.701 119.698,222.099 121.496,221.521 123.294,220.966 125.092,220.432 126.89,219.919 128.688,219.426 130.486,218.953 132.284,218.498 134.082,218.063 135.88,217.653 137.678,217.273 139.476,216.928 141.274,216.619 143.072,216.349 144.87,216.117 146.668,215.924 148.466,215.77 150.264,215.653 152.062,215.573 153.86,215.528 155.658,215.517 157.456,215.536 159.254,215.586 161.052,215.662 162.85,215.764 164.648,215.89 166.446,216.036 168.244,216.202 170.042,216.385 171.84,216.583 173.638,216.795 175.436,217.018 177.234,217.251 179.032,217.493 180.83,217.741 182.628,217.995 184.426,218.253 186.224,218.513 188.022,218.776 189.82,219.038 191.618,219.301 193.416,219.562 195.214,219.821 197.012,220.077 198.81,220.33 200.608,220.579 202.406,220.822 204.204,221.061 206.002,221.294 207.8,221.522 209.598,221.743 211.396,221.957 213.194,222.165 214.992,222.367 216.79,222.561 218.588,222.748 220.386,222.928 222.184,223.101 223.982,223.267 225.78,223.426 227.578,223.578 229.376,223.723 231.174,223.861 232.972,223.993 234.77,224.118 236.568,224.236 238.366,224.348 240.164,224.454 241.962,224.554 243.76,224.648 245.558,224.737 247.356,224.82 249.154,224.898 250.952,224.971 252.75,225.04 252.75,225.04 254.548,225.274 256.346,225.806 258.144,226.581 259.942,227.554 261.74,228.684 263.538,229.938 265.336,231.284 267.134,232.697 268.932,234.157 270.73,235.643 272.528,237.14 274.326,238.635 276.124,240.116 277.922,241.575 279.72,243.002 281.518,244.392 283.316,245.741 285.114,247.042 286.912,248.295 288.71,249.495 290.508,250.642 292.306,251.735 294.104,252.773 295.902,253.756 297.7,254.685 299.498,255.56 301.296,256.381 303.094,257.151 304.892,257.87 306.69,258.54 308.488,259.163 310.286,259.739 312.084,260.272 313.882,260.762 315.68,261.212 317.478,261.623 319.276,261.998 321.074,262.337 322.872,262.644 324.67,262.919 326.468,263.165 328.266,263.383 330.064,263.575 331.862,263.743 333.66,263.887 335.458,264.011 337.256,264.114 339.054,264.199 340.852,264.268 342.65,264.32 344.448,264.358 346.246,264.383 348.044,264.395 349.842,264.397 351.64,264.388 353.438,264.371 355.236,264.345 357.034,264.312 358.832,264.272 360.63,264.227 362.428,264.176 364.226,264.121 366.024,264.063 367.822,264.001 369.62,263.937 371.418,263.87 373.216,263.802 375.014,263.733 376.812,263.662 378.61,263.591 380.408,263.52 382.206,263.449 384.004,263.378 385.802,263.308 387.6,263.239 389.398,263.17 391.196,263.103 392.994,263.037 394.792,262.973 396.59,262.91 398.388,262.849 400.186,262.789 401.984,262.731 403.782,262.676 405.58,262.622 407.378,262.569 409.176,262.519 410.974,262.471 412.772,262.425 414.57,262.381 416.368,262.338 418.166,262.298 419.964,262.259 421.762,262.222 423.56,262.188 425.358,262.154 427.156,262.123 428.954,262.093 430.752,262.065 432.55,262.039 434.348,262.014 436.146,261.991 437.944,261.969 439.742,261.949 441.54,261.93 443.338,261.912 445.136,261.895 446.934,261.88 448.732,261.866 450.53,261.853 452.328,261.84 454.126,261.829 455.924,261.819 457.722,261.81 459.52,261.801 461.318,261.794 463.116,261.787 464.914,261.781 466.712,261.775 468.51,261.77 470.308,261.766 472.106,261.762 473.904,261.759 475.702,261.756 477.5,261.753 479.298,261.581 481.096,261.106 482.894,260.384 484.692,259.461 486.49,258.377 488.288,257.167 490.086,255.861 491.884,254.489 493.682,253.075 495.48,251.638 497.278,250.192 499.076,248.751 500.874,247.323 502.672,245.915 504.47,244.534 506.268,243.183 508.066,241.865 509.864,240.585 511.662,239.347 513.46,238.154 515.258,237.009 517.056,235.914 518.854,234.871 520.652,233.879 522.45,232.939 524.248,232.052 526.046,231.216 527.844,230.431 529.642,229.696 531.44,229.01 533.238,228.371 535.036,227.777 536.834,227.228 538.632,226.722 540.43,226.256 542.228,225.829 544.026,225.44 545.824,225.086 547.622,224.766 549.42,224.477 551.218,224.219 553.016,223.989 554.814,223.786 556.612,223.608 558.41,223.454 560.208,223.322 562.006,223.21 563.804,223.117 565.602,223.041 567.4,222.982 569.198,222.938 570.996,222.908 572.794,222.891 574.592,222.885 576.39,222.889 578.188,222.903 579.986,222.926 581.784,222.956 583.582,222.993 585.38,223.037 587.178,223.085 588.976,223.139 590.774,223.196 592.572,223.257 594.37,223.321 596.168,223.387 597.966,223.455 599.764,223.524 601.562,223.595 603.36,223.666 605.158,223.738 606.956,223.809 608.754,223.881 610.552,223.951 612.35,224.022 614.148,224.091 615.946,224.159 617.744,224.226 619.542,224.291 621.34,224.355 623.138,224.418 624.936,224.478 626.734,224.537 628.532,224.594 630.33,224.65 632.128,224.703 633.926,224.754 635.724,224.804 637.522,224.851 639.32,224.897 641.118,224.94 642.916,224.982 644.714,225.021 646.512,225.059 648.31,225.095 650.108,225.129 651.906,225.161 653.704,225.192 655.502,225.221 657.3,225.248 659.098,225.274 660.896,225.298 662.694,225.32 664.492,225.342 666.29,225.361 668.088,225.38 669.886,225.397 671.684,225.413 673.482,225.428 675.28,225.441 677.078,225.454 678.876,225.466 680.674,225.476 682.472,225.486 684.27,225.495 686.068,225.503 687.866,225.51 689.664,225.517 691.462,225.523 693.26,225.528 695.058,225.533 696.856,225.537 698.654,225.54 700.452,225.543 702.25,225.546 702.25,225.546 704.048,225.719 705.846,226.193 707.644,226.916 709.442,227.839 711.24,228.923 713.038,230.133 714.836,231.44 716.634,232.818 718.432,234.244 720.23,235.699 722.028,237.169 723.826,238.638 725.624,240.096 727.422,241.534 729.22,242.943 731.018,244.317 732.816,245.65 734.614,246.939 736.412,248.18 738.21,249.37 740.008,250.509 741.806,251.595 743.604,252.627 745.402,253.605 747.2,254.53 748.998,255.402 750.796,256.221 752.594,256.99 754.392,257.708 756.19,258.379 757.988,259.002 759.786,259.58 761.584,260.115 763.382,260.607 765.18,261.06 766.978,261.474 768.776,261.852 770.574,262.195 772.372,262.505 774.17,262.784 775.968,263.034 777.766,263.257 779.564,263.453 781.362,263.625 783.16,263.774 784.958,263.902 786.756,264.01 788.554,264.099 790.352,264.172 792.15,264.229 793.948,264.271 795.746,264.3 797.544,264.317 799.342,264.322 801.14,264.317 802.938,264.304 804.736,264.282 806.534,264.252 808.332,264.216 810.13,264.174 811.928,264.127 813.726,264.075 815.524,264.02 817.322,263.961 819.12,263.9 820.918,263.836 822.716,263.77 824.514,263.703 826.312,263.635 828.11,263.566 829.908,263.497 831.706,263.428 833.504,263.359 835.302,263.291 837.1,263.223 838.898,263.157 840.696,263.091 842.494,263.026 844.292,262.963 846.09,262.901 847.888,262.841 849.686,262.783 851.484,262.726 853.282,262.671 855.08,262.618 856.878,262.567 858.676,262.517 860.474,262.47 862.272,262.424 864.07,262.38 865.868,262.338 867.666,262.298 869.464,262.26 871.262,262.224 873.06,262.189 874.858,262.156 876.656,262.125 878.454,262.096 880.252,262.068 882.05,262.042 883.848,262.017 885.646,261.994 887.444,261.972 889.242,261.952 891.04,261.933 892.838,261.915 894.636,261.899 896.434,261.883 898.232,261.869 900.03,261.856 901.828,261.844 903.626,261.833 905.424,261.822 907.222,261.813 909.02,261.804 910.818,261.797 912.616,261.79 914.414,261.783 916.212,261.778 918.01,261.773 919.808,261.768 921.606,261.764 923.404,261.761 925.202,261.758 927,261.756 " />
</g>

<g fill="none" stroke="#000000" stroke-opacity="1" stroke-width="1" stroke-linecap="square" stroke-linejoin="bevel" transform="matrix(0.885417,0,0,0.885417,0,0)"
font-family="Cantarell" font-size="12.9861" font-weight="400" font-style="normal" 
>
</g>

<g fill="none" stroke="#000000" stroke-opacity="1" stroke-width="1" stroke-linecap="square" stroke-linejoin="bevel" transform="matrix(0.885417,0,0,0.885417,0,0)"
font-family="Cantarell" font-size="12.9861" font-weight="400" font-style="normal" 
>
</g>

<g fill="none" stroke="#000000" stroke-opacity="1" stroke-width="1" stroke-linecap="square" stroke-linejoin="bevel" transform="matrix(0.885417,0,0,0.885417,0,0)"
font-family="Cantarell" font-size="12.9861" font-weight="400" font-style="normal" 
>
</g>

<g fill="none" stroke="#f57900" stroke-opacity="1" stroke-dasharray="2,4" stroke-dashoffset="0" stroke-width="2" stroke-linecap="square" stroke-linejoin="bevel" transform="matrix(0.885417,0,0,0.885417,0,0)"
font-family="Cantarell" font-size="12.9861" font-weight="400" font-style="normal" 
>
<polyline fill="none" vector-effect="none" points="28,225.5 29.798,225.5 31.596,225.5 33.394,225.5 35.192,225.5 36.99,225.5 38.788,225.5 40.586,225.5 42.384,225.5 44.182,225.5 45.98,225.5 47.778,225.5 49.576,225.5 51.374,225.5 53.172,225.5 54.97,225.5 56.768,225.5 58.566,225.5 60.364,225.5 62.162,225.5 63.96,225.5 65.758,225.5 67.556,225.5 69.354,225.5 71.152,225.5 72.95,225.5 74.748,225.5 76.546,225.5 78.344,225.5 80.142,225.5 81.94,225.5 83.738,225.5 85.536,225.5 87.334,225.5 89.132,225.5 90.93,225.5 92.728,225.5 94.526,225.5 96.324,225.5 98.122,225.5 99.92,225.5 101.718,225.5 103.516,225.5 105.314,225.5 107.112,225.5 108.91,225.5 110.708,225.5 112.506,225.5 114.304,225.5 116.102,225.5 117.9,225.5 119.698,225.5 121.496,225.5 123.294,225.5 125.092,225.5 126.89,225.5 128.688,225.5 130.486,225.5 132.284,225.5 134.082,225.5 135.88,225.5 137.678,225.5 139.476,225.5 141.274,225.5 143.072,225.5 144.87,225.5 146.668,225.5 148.466,225.5 150.264,225.5 152.062,225.5 153.86,225.5 155.658,225.5 157.456,225.5 159.254,225.5 161.052,225.5 162.85,225.5 164.648,225.5 166.446,225.5 168.244,225.5 170.042,225.5 171.84,225.5 173.638,225.5 175.436,225.5 177.234,225.5 179.032,225.5 180.83,225.5 182.628,225.5 184.426,225.5 186.224,225.5 188.022,225.5 189.82,225.5 191.618,225.5 193.416,225.5 195.214,225.5 197.012,225.5 198.81,225.5 200.608,225.5 202.406,225.5 204.204,225.5 206.002,225.5 207.8,225.5 209.598,225.5 211.396,225.5 213.194,225.5 214.992,225.5 216.79,225.5 218.588,225.5 220.386,225.5 222.184,225.5 223.982,225.5 225.78,225.5 227.578,225.5 229.376,225.5 231.174,225.5 232.972,225.5 234.77,225.5 236.568,225.5 238.366,225.5 240.164,225.5 241.962,225.5 243.76,225.5 245.558,225.5 247.356,225.5 249.154,225.5 250.952,225.5 252.75,225.5 252.75,225.5 252.75,261.8 254.548,261.8 256.346,261.8 258.144,261.8 259.942,261.8 261.74,261.8 263.538,261.8 265.336,261.8 267.134,261.8 268.932,261.8 270.73,261.8 272.528,261.8 274.326,261.8 276.124,261.8 277.922,261.8 279.72,261.8 281.518,261.8 283.316,261.8 285.114,261.8 286.912,261.8 288.71,261.8 290.508,261.8 292.306,261.8 294.104,261.8 295.902,261.8 297.7,261.8 299.498,261.8 301.296,261.8 303.094,261.8 304.892,261.8 306.69,261.8 308.488,261.8 310.286,261.8 312.084,261.8 313.882,261.8 315.68,261.8 317.478,261.8 319.276,261.8 321.074,261.8 322.872,261.8 324.67,261.8 326.468,261.8 328.266,261.8 330.064,261.8 331.862,261.8 333.66,261.8 335.458,261.8 337.256,261.8 339.054,261.8 340.852,261.8 342.65,261.8 344.448,261.8 346.246,261.8 348.044,261.8 349.842,261.8 351.64,261.8 353.438,261.8 355.236,261.8 357.034,261.8 358.832,261.8 360.63,261.8 362.428,261.8 364.226,261.8 366.024,261.8 367.822,261.8 369.62,261.8 371.418,261.8 373.216,261.8 375.014,261.8 376.812,261.8 378.61,261.8 380.408,261.8 382.206,261.8 384.004,261.8 385.802,261.8 387.6,261.8 389.398,261.8 391.196,261.8 392.994,261.8 394.792,261.8 396.59,261.8 398.388,261.8 400.186,261.8 401.984,261.8 403.782,261.8 405.58,261.8 407.378,261.8 409.176,261.8 410.974,261.8 412.772,261.8 414.57,261.8 416.368,261.8 418.166,261.8 419.964,261.8 421.762,261.8 423.56,261.8 425.358,261.8 427.156,261.8 428.954,261.8 430.752,261.8 432.55,261.8 434.348,261.8 436.146,261.8 437.944,261.8 439.742,261.8 441.54,261.8 443.338,261.8 445.136,261.8 446.934,261.8 448.732,261.8 450.53,261.8 452.328,261.8 454.126,261.8 455.924,261.8 457.722,261.8 459.52,261.8 461.318,261.8 463.116,261.8 464.914,261.8 466.712,261.8 468.51,261.8 470.308,261.8 472.106,261.8 473.904,261.8 475.702,261.8 477.5,261.8 477.5,225.5 479.298,225.5 481.096,225.5 482.894,225.5 484.692,225.5 486.49,225.5 488.288,225.5 490.086,225.5 491.884,225.5 493.682,225.5 495.48,225.5 497.278,225.5 499.076,225.5 500.874,225.5 502.672,225.5 504.47,225.5 506.268,225.5 508.066,225.5 509.864,225.5 511.662,225.5 513.46,225.5 515.258,225.5 517.056,225.5 518.854,225.5 520.652,225.5 522.45,225.5 524.248,225.5 526.046,225.5 527.844,225.5 529.642,225.5 531.44,225.5 533.238,225.5 535.036,225.5 536.834,225.5 538.632,225.5 540.43,225.5 542.228,225.5 544.026,225.5 545.824,225.5 547.622,225.5 549.42,225.5 551.218,225.5 553.016,225.5 554.814,225.5 556.612,225.5 558.41,225.5 560.208,225.5 562.006,225.5 563.804,225.5 565.602,225.5 567.4,225.5 569.198,225.5 570.996,225.5 572.794,225.5 574.592,225.5 576.39,225.5 578.188,225.5 579.986,225.5 581.784,225.5 583.582,225.5 585.38,225.5 587.178,225.5 588.976,225.5 590.774,225.5 592.572,225.5 594.37,225.5 596.168,225.5 597.966,225.5 599.764,225.5 601.562,225.5 603.36,225.5 605.158,225.5 606.956,225.5 608.754,225.5 610.552,225.5 612.35,225.5 614.148,225.5 615.946,225.5 617.744,225.5 619.542,225.5 621.34,225.5 623.138,225.5 624.936,225.5 626.734,225.5 628.532,225.5 630.33,225.5 632.128,225.5 633.926,225.5 635.724,225.5 637.522,225.5 639.32,225.5 641.118,225.5 642.916,225.5 644.714,225.5 646.512,225.5 648.31,225.5 650.108,225.5 651.906,225.5 653.704,225.5 655.502,225.5 657.3,225.5 659.098,225.5 660.896,225.5 662.694,225.5 664.492,225.5 666.29,225.5 668.088,225.5 669.886,225.5 671.684,225.5 673.482,225.5 675.28,225.5 677.078,225.5 678.876,225.5 680.674,225.5 682.472,225.5 684.27,225.5 686.068,225.5 687.866,225.5 689.664,225.5 691.462,225.5 693.26,225.5 695.058,225.5 696.856,225.5 698.654,225.5 700.452,225.5 702.25,225.5 702.25,225.5 702.25,261.8 704.048,261.8 705.846,261.8 707.644,261.8 709.442,261.8 711.24,261.8 713.038,261.8 714.836,261.8 716.634,261.8 718.432,261.8 720.23,261.8 722.028,261.8 723.826,261.8 725.624,261.8 727.422,261.8 729.22,261.8 731.018,261.8 732.816,261.8 734.614,261.8 736.412,261.8 738.21,261.8 740.008,261.8 741.806,261.8 743.604,261.8 745.402,261.8 747.2,261.8 748.998,261.8 750.796,261.8 752.594,261.8 754.392,261.8 756.19,261.8 757.988,261.8 759.786,261.8 761.584,261.8 763.382,261.8 765.18,261.8 766.978,261.8 768.776,261.8 770.574,261.8 772.372,261.8 774.17,261.8 775.968,261.8 777.766,261.8 779.564,261.8 781.362,261.8 783.16,261.8 784.958,261.8 786.756,261.8 788.554,261.8 790.352,261.8 792.15,261.8 793.948,261.8 795.746,261.8 797.544,261.8 799.342,261.8 801.14,261.8 802.938,261.8 804.736,261.8 806.534,261.8 808.332,261.8 810.13,261.8 811.928,261.8 813.726,261.8 815.524,261.8 817.322,261.8 819.12,261.8 820.918,261.8 822.716,261.8 824.514,261.8 826.312,261.8 828.11,261.8 829.908,261.8 831.706,261.8 833.504,261.8 835.302,261.8 837.1,261.8 838.898,261.8 840.696,261.8 842.494,261.8 844.292,261.8 846.09,261.8 847.888,261.8 849.686,261.8 851.484,261.8 853.282,261.8 855.08,261.8 856.878,261.8 858.676,261.8 860.474,261.8 862.272,261.8 864.07,261.8 865.868,261.8 867.666,261.8 869.464,261.8 871.262,261.8 873.06,261.8 874.858,261.8 876.656,261.8 878.454,261.8 880.252,261.8 882.05,261.8 883.848,261.8 885.646,261.8 887.444,261.8 889.242,261.8 891.04,261.8 892.838,261.8 894.636,261.8 896.434,261.8 898.232,261.8 900.03,261.8 901.828,261.8 903.626,261.8 905.424,261.8 907.222,261.8 909.02,261.8 910.818,261.8 912.616,261.8 914.414,261.8 916.212,261.8 918.01,261.8 919.808,261.8 921.606,261.8 923.404,261.8 925.202,261.8 927,261.8 927,225.5 " />
</g>

<g fill="none" stroke="#000000" stroke-opacity="1" stroke-width="1" stroke-linecap="square" stroke-linejoin="bevel" transform="matrix(0.885417,0,0,0.885417,0,0)"
font-family="Cantarell" font-size="12.9861" font-weight="400" font-style="normal" 
>
</g>

<g fill="none" stroke="#000000" stroke-opacity="1" stroke-width="1" stroke-linecap="square" stroke-linejoin="bevel" transform="matrix(0.885417,0,0,0.885417,0,0)"
font-family="Cantarell" font-size="12.9861" font-weight="400" font-style="normal" 
>
</g>

<g fill="none" stroke="#000000" stroke-opacity="1" stroke-width="1" stroke-linecap="square" stroke-linejoin="bevel" transform="matrix(0.885417,0,0,0.885417,0,0)"
font-family="Cantarell" font-size="12.9861" font-weight="400" font-style="normal" 
>
</g>

<g fill="none" stroke="#0059de" stroke-opacity="1" stroke-width="2" stroke-linecap="square" stroke-linejoin="bevel" transform="matrix(0.885417,0,0,0.885417,0,0)"
font-family="Cantarell" font-size="12.9861" font-weight="400" font-style="normal" 
>
<polyline fill="none" vector-effect="none" points="28,44 29.798,44 31.596,44 33.394,44 35.192,44 36.99,44 38.788,44 40.586,44 42.384,44 44.182,44 45.98,44 47.778,44 49.576,44 51.374,44 53.172,44 54.97,44 56.768,44 58.566,44 60.364,44 62.162,44 63.96,44 65.758,44 67.556,44 69.354,44 71.152,44 72.95,44 74.748,44 76.546,44 78.344,44 80.142,44 81.94,44 83.738,44 85.536,44 87.334,44 89.132,44 90.93,44 92.728,44 94.526,44 96.324,44 98.122,44 99.92,44 101.718,44 103.516,44 105.314,44 107.112,44 108.91,44 110.708,44 112.506,44 114.304,44 116.102,44 117.9,44 119.698,44 121.496,44 123.294,44 125.092,44 126.89,44 128.688,44 130.486,44 132.284,44.5534 134.082,48.7927 135.88,53.0259 137.678,57.2201 139.476,61.3476 141.274,65.3856 143.072,69.3157 144.87,73.1232 146.668,76.7964 148.466,80.3262 150.264,83.7062 152.062,86.9318 153.86,90.0003 155.658,92.9103 157.456,95.6619 159.254,98.2563 161.052,100.695 162.85,102.982 164.648,105.12 166.446,107.113 168.244,108.965 170.042,110.681 171.84,112.266 173.638,113.726 175.436,115.065 177.234,116.29 179.032,117.404 180.83,118.415 182.628,119.327 184.426,120.145 186.224,120.876 188.022,121.523 189.82,122.092 191.618,122.588 193.416,123.016 195.214,123.38 197.012,123.685 198.81,123.935 200.608,124.134 202.406,124.285 204.204,124.394 206.002,124.463 207.8,124.495 209.598,124.495 211.396,124.464 213.194,124.406 214.992,124.324 216.79,124.22 218.588,124.097 220.386,123.957 222.184,123.801 223.982,123.633 225.78,123.454 227.578,123.265 229.376,123.068 231.174,122.865 232.972,122.657 234.77,122.445 236.568,122.231 238.366,122.015 240.164,121.799 241.962,121.583 243.76,121.368 245.558,121.155 247.356,120.945 249.154,120.737 250.952,120.534 252.75,120.334 252.75,120.334 252.75,301.834 254.548,311.139 256.346,318.847 258.144,325.148 259.942,330.212 261.74,334.186 263.538,337.206 265.336,339.388 267.134,340.838 268.932,341.65 270.73,341.905 272.528,341.678 274.326,341.035 276.124,340.035 277.922,338.73 279.72,337.167 281.518,335.386 283.316,333.426 285.114,331.318 286.912,329.093 288.71,326.776 290.508,324.39 292.306,321.956 294.104,319.492 295.902,317.014 297.7,314.535 299.498,312.069 301.296,309.625 303.094,307.214 304.892,304.843 306.69,302.519 308.488,300.247 310.286,298.034 312.084,295.883 313.882,293.797 315.68,291.779 317.478,289.831 319.276,287.954 321.074,286.15 322.872,284.42 324.67,282.762 326.468,281.177 328.266,279.665 330.064,278.225 331.862,276.856 333.66,275.556 335.458,274.325 337.256,273.16 339.054,272.06 340.852,271.024 342.65,270.049 344.448,269.133 346.246,268.275 348.044,267.472 349.842,266.723 351.64,266.025 353.438,265.376 355.236,264.774 357.034,264.217 358.832,263.703 360.63,263.23 362.428,262.796 364.226,262.398 366.024,262.036 367.822,261.707 369.62,261.409 371.418,261.14 373.216,260.9 375.014,260.685 376.812,260.495 378.61,260.328 380.408,260.182 382.206,260.056 384.004,259.948 385.802,259.858 387.6,259.784 389.398,259.724 391.196,259.678 392.994,259.645 394.792,259.623 396.59,259.611 398.388,259.609 400.186,259.616 401.984,259.63 403.782,259.652 405.58,259.679 407.378,259.713 409.176,259.751 410.974,259.793 412.772,259.839 414.57,259.889 416.368,259.941 418.166,259.995 419.964,260.051 421.762,260.109 423.56,260.168 425.358,260.227 427.156,260.287 428.954,260.347 430.752,260.407 432.55,260.467 434.348,260.526 436.146,260.585 437.944,260.643 439.742,260.7 441.54,260.755 443.338,260.81 445.136,260.863 446.934,260.915 448.732,260.965 450.53,261.014 452.328,261.061 454.126,261.107 455.924,261.151 457.722,261.193 459.52,261.234 461.318,261.273 463.116,261.31 464.914,261.346 466.712,261.38 468.51,261.413 470.308,261.444 472.106,261.473 473.904,261.501 475.702,261.528 477.5,261.553 477.5,80.0529 479.298,70.5756 481.096,62.6993 482.894,56.2336 484.692,51.01 486.49,46.8788 488.288,44 490.086,44 491.884,44 493.682,44 495.48,44 497.278,44 499.076,44 500.874,44 502.672,44 504.47,44 506.268,44 508.066,44.792 509.864,46.6998 511.662,48.7587 513.46,50.9384 515.258,53.2121 517.056,55.556 518.854,57.9492 520.652,60.3735 522.45,62.8126 524.248,65.2522 526.046,67.6797 527.844,70.0844 529.642,72.4569 531.44,74.7892 533.238,77.0744 535.036,79.3065 536.834,81.4808 538.632,83.5932 540.43,85.6403 542.228,87.6196 544.026,89.5292 545.824,91.3676 547.622,93.1338 549.42,94.8274 551.218,96.4482 553.016,97.9965 554.814,99.4728 556.612,100.878 558.41,102.213 560.208,103.479 562.006,104.678 563.804,105.811 565.602,106.88 567.4,107.886 569.198,108.832 570.996,109.72 572.794,110.551 574.592,111.327 576.39,112.051 578.188,112.725 579.986,113.351 581.784,113.93 583.582,114.466 585.38,114.959 587.178,115.413 588.976,115.828 590.774,116.208 592.572,116.553 594.37,116.866 596.168,117.149 597.966,117.403 599.764,117.631 601.562,117.832 603.36,118.011 605.158,118.167 606.956,118.302 608.754,118.418 610.552,118.516 612.35,118.598 614.148,118.664 615.946,118.716 617.744,118.755 619.542,118.782 621.34,118.798 623.138,118.804 624.936,118.802 626.734,118.79 628.532,118.772 630.33,118.747 632.128,118.716 633.926,118.679 635.724,118.639 637.522,118.594 639.32,118.545 641.118,118.494 642.916,118.44 644.714,118.385 646.512,118.327 648.31,118.269 650.108,118.209 651.906,118.149 653.704,118.088 655.502,118.028 657.3,117.967 659.098,117.908 660.896,117.848 662.694,117.79 664.492,117.732 666.29,117.676 668.088,117.62 669.886,117.566 671.684,117.513 673.482,117.462 675.28,117.412 677.078,117.364 678.876,117.317 680.674,117.272 682.472,117.229 684.27,117.187 686.068,117.147 687.866,117.109 689.664,117.072 691.462,117.037 693.26,117.004 695.058,116.972 696.856,116.941 698.654,116.913 700.452,116.885 702.25,116.86 702.25,116.86 702.25,298.36 704.048,307.836 705.846,315.711 707.644,322.176 709.442,327.399 711.24,331.53 713.038,334.701 714.836,337.03 716.634,338.622 718.432,339.57 720.23,339.958 722.028,339.858 723.826,339.338 725.624,338.455 727.422,337.262 729.22,335.806 731.018,334.128 732.816,332.266 734.614,330.251 736.412,328.114 738.21,325.881 740.008,323.575 741.806,321.216 743.604,318.823 745.402,316.411 747.2,313.996 748.998,311.588 750.796,309.2 752.594,306.84 754.392,304.517 756.19,302.238 757.988,300.009 759.786,297.834 761.584,295.719 763.382,293.666 765.18,291.679 766.978,289.759 768.776,287.908 770.574,286.128 772.372,284.418 774.17,282.78 775.968,281.213 777.766,279.716 779.564,278.29 781.362,276.933 783.16,275.645 784.958,274.423 786.756,273.266 788.554,272.174 790.352,271.143 792.15,270.173 793.948,269.262 795.746,268.407 797.544,267.606 799.342,266.858 801.14,266.161 802.938,265.513 804.736,264.91 806.534,264.353 808.332,263.838 810.13,263.363 811.928,262.927 813.726,262.527 815.524,262.162 817.322,261.83 819.12,261.529 820.918,261.258 822.716,261.014 824.514,260.795 826.312,260.602 828.11,260.431 829.908,260.281 831.706,260.151 833.504,260.04 835.302,259.946 837.1,259.868 838.898,259.805 840.696,259.756 842.494,259.719 844.292,259.693 846.09,259.678 847.888,259.672 849.686,259.676 851.484,259.687 853.282,259.705 855.08,259.73 856.878,259.76 858.676,259.795 860.474,259.835 862.272,259.878 864.07,259.925 865.868,259.975 867.666,260.027 869.464,260.08 871.262,260.136 873.06,260.193 874.858,260.25 876.656,260.308 878.454,260.367 880.252,260.425 882.05,260.483 883.848,260.541 885.646,260.598 887.444,260.655 889.242,260.71 891.04,260.765 892.838,260.818 894.636,260.87 896.434,260.921 898.232,260.97 900.03,261.018 901.828,261.065 903.626,261.11 905.424,261.153 907.222,261.195 909.02,261.235 910.818,261.274 912.616,261.311 914.414,261.346 916.212,261.38 918.01,261.412 919.808,261.443 921.606,261.472 923.404,261.5 925.202,261.526 927,261.551 927,80.0507 " />
</g>

<g fill="none" stroke="#000000" stroke-opacity="1" stroke-width="1" stroke-linecap="square" stroke-linejoin="bevel" transform="matrix(0.885417,0,0,0.885417,0,0)"
font-family="Cantarell" font-size="12.9861" font-weight="400" font-style="normal" 
>
</g>

<g fill="none" stroke="#000000" stroke-opacity="1" stroke-width="1" stroke-linecap="square" stroke-linejoin="bevel" transform="matrix(0.885417,0,0,0.885417,0,0)"
font-family="Cantarell" font-size="12.9861" font-weight="400" font-style="normal" 
>
</g>

<g fill="none" stroke="#000000" stroke-opacity="1" stroke-width="1" stroke-linecap="square" stroke-linejoin="bevel" transform="matrix(0.885417,0,0,0.885417,0,0)"
font-family="Cantarell" font-size="12.9861" font-weight="400" font-style="normal" 
>
</g>

<g fill="none" stroke="#000000" stroke-opacity="1" stroke-width="1" stroke-linecap="square" stroke-linejoin="bevel" transform="matrix(0.885417,0,0,0.885417,0,0)"
font-family="Cantarell" font-size="12.9861" font-weight="400" font-style="normal" 
>
</g>

<g fill="none" stroke="#000000" stroke-opacity="1" stroke-width="1" stroke-linecap="square" stroke-linejoin="bevel" transform="matrix(0.885417,0,0,0.885417,26.5625,1.77083)"
font-family="Cantarell" font-size="12.9861" font-weight="400" font-style="normal" 
>
</g>

<g fill="none" stroke="#ff0000" stroke-opacity="1" stroke-width="2" stroke-linecap="butt" stroke-linejoin="bevel" transform="matrix(1,0,0,1,0,0)"
font-family="Cantarell" font-size="12.9861" font-weight="400" font-style="normal" 
>
<path vector-effect="none" fill-rule="evenodd" d="M26.5625,15.0521 L53.125,15.0521"/>
</g>

<g fill="none" stroke="#000000" stroke-opacity="1" stroke-width="1" stroke-linecap="square" stroke-linejoin="bevel" transform="matrix(0.885417,0,0,0.885417,26.5625,1.77083)"
font-family="Cantarell" font-size="12.9861" font-weight="400" font-style="normal" 
>
</g>

<g fill="none" stroke="#000000" stroke-opacity="1" stroke-width="1" stroke-linecap="square" stroke-linejoin="bevel" transform="matrix(0.885417,0,0,0.885417,0,0)"
font-family="Cantarell" font-size="12.9861" font-weight="400" font-style="normal" 
>
</g>

<g fill="none" stroke="#000000" stroke-opacity="1" stroke-width="1" stroke-linecap="square" stroke-linejoin="bevel" transform="matrix(0.885417,0,0,0.885417,0,0)"
font-family="Cantarell" font-size="15" font-weight="400" font-style="normal" 
>
</g>

<g fill="none" stroke="#000000" stroke-opacity="1" stroke-width="1" stroke-linecap="square" stroke-linejoin="bevel" transform="matrix(0.885417,0,0,0.885417,0,0)"
font-family="Cantarell" font-size="15" font-weight="400" font-style="normal" 
>
<text fill="#000000" fill-opacity="1" stroke="none" xml:space="preserve" x="64" y="22" font-family="Cantarell" font-size="15" font-weight="400" font-style="normal" 
 >process.y</text>
</g>

<g fill="none" stroke="#000000" stroke-opacity="1" stroke-width="1" stroke-linecap="square" stroke-linejoin="bevel" transform="matrix(0.885417,0,0,0.885417,0,0)"
font-family="Cantarell" font-size="12.9861" font-weight="400" font-style="normal" 
>
</g>

<g fill="none" stroke="#000000" stroke-opacity="1" stroke-width="1" stroke-linecap="square" stroke-linejoin="bevel" transform="matrix(0.885417,0,0,0.885417,0,0)"
font-family="Cantarell" font-size="12.9861" font-weight="400" font-style="normal" 
>
</g>

<g fill="none" stroke="#000000" stroke-opacity="1" stroke-width="1" stroke-linecap="square" stroke-linejoin="bevel" transform="matrix(0.885417,0,0,0.885417,0,0)"
font-family="Cantarell" font-size="12.9861" font-weight="400" font-style="normal" 
>
</g>

<g fill="none" stroke="#000000" stroke-opacity="1" stroke-width="1" stroke-linecap="square" stroke-linejoin="bevel" transform="matrix(0.885417,0,0,0.885417,0,0)"
font-family="Cantarell" font-size="12.9861" font-weight="400" font-style="normal" 
>
</g>

<g fill="none" stroke="#000000" stroke-opacity="1" stroke-width="1" stroke-linecap="square" stroke-linejoin="bevel" transform="matrix(0.885417,0,0,0.885417,123.073,1.77083)"
font-family="Cantarell" font-size="12.9861" font-weight="400" font-style="normal" 
>
</g>

<g fill="none" stroke="#f57900" stroke-opacity="1" stroke-dasharray="2,4" stroke-dashoffset="0" stroke-width="2" stroke-linecap="butt" stroke-linejoin="bevel" transform="matrix(1,0,0,1,0,0)"
font-family="Cantarell" font-size="12.9861" font-weight="400" font-style="normal" 
>
<path vector-effect="none" fill-rule="evenodd" d="M123.073,15.0521 L149.635,15.0521"/>
</g>

<g fill="none" stroke="#000000" stroke-opacity="1" stroke-width="1" stroke-linecap="square" stroke-linejoin="bevel" transform="matrix(0.885417,0,0,0.885417,123.073,1.77083)"
font-family="Cantarell" font-size="12.9861" font-weight="400" font-style="normal" 
>
</g>

<g fill="none" stroke="#000000" stroke-opacity="1" stroke-width="1" stroke-linecap="square" stroke-linejoin="bevel" transform="matrix(0.885417,0,0,0.885417,0,0)"
font-family="Cantarell" font-size="12.9861" font-weight="400" font-style="normal" 
>
</g>

<g fill="none" stroke="#000000" stroke-opacity="1" stroke-width="1" stroke-linecap="square" stroke-linejoin="bevel" transform="matrix(0.885417,0,0,0.885417,0,0)"
font-family="Cantarell" font-size="15" font-weight="400" font-style="normal" 
>
</g>

<g fill="none" stroke="#000000" stroke-opacity="1" stroke-width="1" stroke-linecap="square" stroke-linejoin="bevel" transform="matrix(0.885417,0,0,0.885417,0,0)"
font-family="Cantarell" font-size="15" font-weight="400" font-style="normal" 
>
<text fill="#000000" fill-opacity="1" stroke="none" xml:space="preserve" x="173" y="22" font-family="Cantarell" font-size="15" font-weight="400" font-style="normal" 
 >y_set_point.y</text>
</g>

<g fill="none" stroke="#000000" stroke-opacity="1" stroke-width="1" stroke-linecap="square" stroke-linejoin="bevel" transform="matrix(0.885417,0,0,0.885417,0,0)"
font-family="Cantarell" font-size="12.9861" font-weight="400" font-style="normal" 
>
</g>

<g fill="none" stroke="#000000" stroke-opacity="1" stroke-width="1" stroke-linecap="square" stroke-linejoin="bevel" transform="matrix(0.885417,0,0,0.885417,0,0)"
font-family="Cantarell" font-size="12.9861" font-weight="400" font-style="normal" 
>
</g>

<g fill="none" stroke="#000000" stroke-opacity="1" stroke-width="1" stroke-linecap="square" stroke-linejoin="bevel" transform="matrix(0.885417,0,0,0.885417,0,0)"
font-family="Cantarell" font-size="12.9861" font-weight="400" font-style="normal" 
>
</g>

<g fill="none" stroke="#000000" stroke-opacity="1" stroke-width="1" stroke-linecap="square" stroke-linejoin="bevel" transform="matrix(0.885417,0,0,0.885417,0,0)"
font-family="Cantarell" font-size="12.9861" font-weight="400" font-style="normal" 
>
</g>

<g fill="none" stroke="#000000" stroke-opacity="1" stroke-width="1" stroke-linecap="square" stroke-linejoin="bevel" transform="matrix(0.885417,0,0,0.885417,241.719,1.77083)"
font-family="Cantarell" font-size="12.9861" font-weight="400" font-style="normal" 
>
</g>

<g fill="none" stroke="#0059de" stroke-opacity="1" stroke-width="2" stroke-linecap="butt" stroke-linejoin="bevel" transform="matrix(1,0,0,1,0,0)"
font-family="Cantarell" font-size="12.9861" font-weight="400" font-style="normal" 
>
<path vector-effect="none" fill-rule="evenodd" d="M241.719,15.0521 L268.281,15.0521"/>
</g>

<g fill="none" stroke="#000000" stroke-opacity="1" stroke-width="1" stroke-linecap="square" stroke-linejoin="bevel" transform="matrix(0.885417,0,0,0.885417,241.719,1.77083)"
font-family="Cantarell" font-size="12.9861" font-weight="400" font-style="normal" 
>
</g>

<g fill="none" stroke="#000000" stroke-opacity="1" stroke-width="1" stroke-linecap="square" stroke-linejoin="bevel" transform="matrix(0.885417,0,0,0.885417,0,0)"
font-family="Cantarell" font-size="12.9861" font-weight="400" font-style="normal" 
>
</g>

<g fill="none" stroke="#000000" stroke-opacity="1" stroke-width="1" stroke-linecap="square" stroke-linejoin="bevel" transform="matrix(0.885417,0,0,0.885417,0,0)"
font-family="Cantarell" font-size="15" font-weight="400" font-style="normal" 
>
</g>

<g fill="none" stroke="#000000" stroke-opacity="1" stroke-width="1" stroke-linecap="square" stroke-linejoin="bevel" transform="matrix(0.885417,0,0,0.885417,0,0)"
font-family="Cantarell" font-size="15" font-weight="400" font-style="normal" 
>
<text fill="#000000" fill-opacity="1" stroke="none" xml:space="preserve" x="307" y="22" font-family="Cantarell" font-size="15" font-weight="400" font-style="normal" 
 >process.u</text>
</g>

<g fill="none" stroke="#000000" stroke-opacity="1" stroke-width="1" stroke-linecap="square" stroke-linejoin="bevel" transform="matrix(0.885417,0,0,0.885417,0,0)"
font-family="Cantarell" font-size="12.9861" font-weight="400" font-style="normal" 
>
</g>

<g fill="none" stroke="#000000" stroke-opacity="1" stroke-width="1" stroke-linecap="square" stroke-linejoin="bevel" transform="matrix(0.885417,0,0,0.885417,0,0)"
font-family="Cantarell" font-size="12.9861" font-weight="400" font-style="normal" 
>
</g>

<g fill="none" stroke="#000000" stroke-opacity="1" stroke-width="1" stroke-linecap="square" stroke-linejoin="bevel" transform="matrix(0.885417,0,0,0.885417,0,0)"
font-family="Cantarell" font-size="12.9861" font-weight="400" font-style="normal" 
>
</g>

<g fill="none" stroke="#000000" stroke-opacity="1" stroke-width="1" stroke-linecap="square" stroke-linejoin="bevel" transform="matrix(0,-0.885417,0.885417,0,0,364.792)"
font-family="Cantarell" font-size="11.8056" font-weight="400" font-style="normal" 
>
</g>

<g fill="none" stroke="#000000" stroke-opacity="1" stroke-width="1" stroke-linecap="square" stroke-linejoin="bevel" transform="matrix(0,-0.885417,0.885417,0,0,364.792)"
font-family="Cantarell" font-size="12.9861" font-weight="400" font-style="normal" 
>
</g>

<g fill="none" stroke="#000000" stroke-opacity="1" stroke-width="1" stroke-linecap="square" stroke-linejoin="bevel" transform="matrix(0,-0.885417,0.885417,0,0,364.792)"
font-family="Cantarell" font-size="12.9861" font-weight="400" font-style="normal" 
>
</g>

<g fill="none" stroke="#000000" stroke-opacity="1" stroke-width="1" stroke-linecap="square" stroke-linejoin="bevel" transform="matrix(0,-0.885417,0.885417,0,0,364.792)"
font-family="Cantarell" font-size="11.8056" font-weight="400" font-style="normal" 
>
</g>

<g fill="none" stroke="#000000" stroke-opacity="1" stroke-width="1" stroke-linecap="square" stroke-linejoin="bevel" transform="matrix(0.885417,0,0,0.885417,0,0)"
font-family="Cantarell" font-size="12.9861" font-weight="400" font-style="normal" 
>
</g>

<g fill="none" stroke="#000000" stroke-opacity="1" stroke-width="1" stroke-linecap="square" stroke-linejoin="bevel" transform="matrix(0.885417,0,0,0.885417,0,0)"
font-family="Cantarell" font-size="11.8056" font-weight="400" font-style="normal" 
>
</g>

<g fill="none" stroke="#000000" stroke-opacity="1" stroke-width="1" stroke-linecap="square" stroke-linejoin="bevel" transform="matrix(0.885417,0,0,0.885417,0,0)"
font-family="Cantarell" font-size="11.8056" font-weight="400" font-style="normal" 
>
</g>

<g fill="none" stroke="#000000" stroke-opacity="1" stroke-width="1" stroke-linecap="square" stroke-linejoin="bevel" transform="matrix(0.885417,0,0,0.885417,0,0)"
font-family="Cantarell" font-size="11.8056" font-weight="400" font-style="normal" 
>
</g>

<g fill="none" stroke="#000000" stroke-opacity="1" stroke-width="1" stroke-linecap="square" stroke-linejoin="bevel" transform="matrix(0.885417,0,0,0.885417,6.19792,355.938)"
font-family="Cantarell" font-size="11.8056" font-weight="400" font-style="normal" 
>
</g>

<g fill="none" stroke="#000000" stroke-opacity="1" stroke-width="1" stroke-linecap="square" stroke-linejoin="bevel" transform="matrix(0.885417,0,0,0.885417,6.19792,355.938)"
font-family="Cantarell" font-size="13" font-weight="400" font-style="normal" 
>
</g>

<g fill="none" stroke="#000000" stroke-opacity="1" stroke-width="1" stroke-linecap="square" stroke-linejoin="bevel" transform="matrix(0.885417,0,0,0.885417,6.19792,355.938)"
font-family="Cantarell" font-size="13" font-weight="400" font-style="normal" 
>
<text fill="#000000" fill-opacity="1" stroke="none" xml:space="preserve" x="0" y="10" font-family="Cantarell" font-size="13" font-weight="400" font-style="normal" 
 >0</text>
</g>

<g fill="none" stroke="#000000" stroke-opacity="1" stroke-width="1" stroke-linecap="square" stroke-linejoin="bevel" transform="matrix(0.885417,0,0,0.885417,6.19792,355.938)"
font-family="Cantarell" font-size="11.8056" font-weight="400" font-style="normal" 
>
</g>

<g fill="none" stroke="#000000" stroke-opacity="1" stroke-width="1" stroke-linecap="square" stroke-linejoin="bevel" transform="matrix(0.885417,0,0,0.885417,6.19792,355.938)"
font-family="Cantarell" font-size="11.8056" font-weight="400" font-style="normal" 
>
</g>

<g fill="none" stroke="#000000" stroke-opacity="1" stroke-width="1" stroke-linecap="square" stroke-linejoin="bevel" transform="matrix(0.885417,0,0,0.885417,0,0)"
font-family="Cantarell" font-size="11.8056" font-weight="400" font-style="normal" 
>
</g>

<g fill="none" stroke="#000000" stroke-opacity="1" stroke-width="1" stroke-linecap="square" stroke-linejoin="bevel" transform="matrix(0.885417,0,0,0.885417,6.19792,291.656)"
font-family="Cantarell" font-size="11.8056" font-weight="400" font-style="normal" 
>
</g>

<g fill="none" stroke="#000000" stroke-opacity="1" stroke-width="1" stroke-linecap="square" stroke-linejoin="bevel" transform="matrix(0.885417,0,0,0.885417,6.19792,291.656)"
font-family="Cantarell" font-size="13" font-weight="400" font-style="normal" 
>
</g>

<g fill="none" stroke="#000000" stroke-opacity="1" stroke-width="1" stroke-linecap="square" stroke-linejoin="bevel" transform="matrix(0.885417,0,0,0.885417,6.19792,291.656)"
font-family="Cantarell" font-size="13" font-weight="400" font-style="normal" 
>
<text fill="#000000" fill-opacity="1" stroke="none" xml:space="preserve" x="0" y="10" font-family="Cantarell" font-size="13" font-weight="400" font-style="normal" 
 >2</text>
</g>

<g fill="none" stroke="#000000" stroke-opacity="1" stroke-width="1" stroke-linecap="square" stroke-linejoin="bevel" transform="matrix(0.885417,0,0,0.885417,6.19792,291.656)"
font-family="Cantarell" font-size="11.8056" font-weight="400" font-style="normal" 
>
</g>

<g fill="none" stroke="#000000" stroke-opacity="1" stroke-width="1" stroke-linecap="square" stroke-linejoin="bevel" transform="matrix(0.885417,0,0,0.885417,6.19792,291.656)"
font-family="Cantarell" font-size="11.8056" font-weight="400" font-style="normal" 
>
</g>

<g fill="none" stroke="#000000" stroke-opacity="1" stroke-width="1" stroke-linecap="square" stroke-linejoin="bevel" transform="matrix(0.885417,0,0,0.885417,0,0)"
font-family="Cantarell" font-size="11.8056" font-weight="400" font-style="normal" 
>
</g>

<g fill="none" stroke="#000000" stroke-opacity="1" stroke-width="1" stroke-linecap="square" stroke-linejoin="bevel" transform="matrix(0.885417,0,0,0.885417,5.3125,227.375)"
font-family="Cantarell" font-size="11.8056" font-weight="400" font-style="normal" 
>
</g>

<g fill="none" stroke="#000000" stroke-opacity="1" stroke-width="1" stroke-linecap="square" stroke-linejoin="bevel" transform="matrix(0.885417,0,0,0.885417,5.3125,227.375)"
font-family="Cantarell" font-size="13" font-weight="400" font-style="normal" 
>
</g>

<g fill="none" stroke="#000000" stroke-opacity="1" stroke-width="1" stroke-linecap="square" stroke-linejoin="bevel" transform="matrix(0.885417,0,0,0.885417,5.3125,227.375)"
font-family="Cantarell" font-size="13" font-weight="400" font-style="normal" 
>
<text fill="#000000" fill-opacity="1" stroke="none" xml:space="preserve" x="0" y="10" font-family="Cantarell" font-size="13" font-weight="400" font-style="normal" 
 >4</text>
</g>

<g fill="none" stroke="#000000" stroke-opacity="1" stroke-width="1" stroke-linecap="square" stroke-linejoin="bevel" transform="matrix(0.885417,0,0,0.885417,5.3125,227.375)"
font-family="Cantarell" font-size="11.8056" font-weight="400" font-style="normal" 
>
</g>

<g fill="none" stroke="#000000" stroke-opacity="1" stroke-width="1" stroke-linecap="square" stroke-linejoin="bevel" transform="matrix(0.885417,0,0,0.885417,5.3125,227.375)"
font-family="Cantarell" font-size="11.8056" font-weight="400" font-style="normal" 
>
</g>

<g fill="none" stroke="#000000" stroke-opacity="1" stroke-width="1" stroke-linecap="square" stroke-linejoin="bevel" transform="matrix(0.885417,0,0,0.885417,0,0)"
font-family="Cantarell" font-size="11.8056" font-weight="400" font-style="normal" 
>
</g>

<g fill="none" stroke="#000000" stroke-opacity="1" stroke-width="1" stroke-linecap="square" stroke-linejoin="bevel" transform="matrix(0.885417,0,0,0.885417,6.19792,163.094)"
font-family="Cantarell" font-size="11.8056" font-weight="400" font-style="normal" 
>
</g>

<g fill="none" stroke="#000000" stroke-opacity="1" stroke-width="1" stroke-linecap="square" stroke-linejoin="bevel" transform="matrix(0.885417,0,0,0.885417,6.19792,163.094)"
font-family="Cantarell" font-size="13" font-weight="400" font-style="normal" 
>
</g>

<g fill="none" stroke="#000000" stroke-opacity="1" stroke-width="1" stroke-linecap="square" stroke-linejoin="bevel" transform="matrix(0.885417,0,0,0.885417,6.19792,163.094)"
font-family="Cantarell" font-size="13" font-weight="400" font-style="normal" 
>
<text fill="#000000" fill-opacity="1" stroke="none" xml:space="preserve" x="0" y="10" font-family="Cantarell" font-size="13" font-weight="400" font-style="normal" 
 >6</text>
</g>

<g fill="none" stroke="#000000" stroke-opacity="1" stroke-width="1" stroke-linecap="square" stroke-linejoin="bevel" transform="matrix(0.885417,0,0,0.885417,6.19792,163.094)"
font-family="Cantarell" font-size="11.8056" font-weight="400" font-style="normal" 
>
</g>

<g fill="none" stroke="#000000" stroke-opacity="1" stroke-width="1" stroke-linecap="square" stroke-linejoin="bevel" transform="matrix(0.885417,0,0,0.885417,6.19792,163.094)"
font-family="Cantarell" font-size="11.8056" font-weight="400" font-style="normal" 
>
</g>

<g fill="none" stroke="#000000" stroke-opacity="1" stroke-width="1" stroke-linecap="square" stroke-linejoin="bevel" transform="matrix(0.885417,0,0,0.885417,0,0)"
font-family="Cantarell" font-size="11.8056" font-weight="400" font-style="normal" 
>
</g>

<g fill="none" stroke="#000000" stroke-opacity="1" stroke-width="1" stroke-linecap="square" stroke-linejoin="bevel" transform="matrix(0.885417,0,0,0.885417,6.19792,98.8125)"
font-family="Cantarell" font-size="11.8056" font-weight="400" font-style="normal" 
>
</g>

<g fill="none" stroke="#000000" stroke-opacity="1" stroke-width="1" stroke-linecap="square" stroke-linejoin="bevel" transform="matrix(0.885417,0,0,0.885417,6.19792,98.8125)"
font-family="Cantarell" font-size="13" font-weight="400" font-style="normal" 
>
</g>

<g fill="none" stroke="#000000" stroke-opacity="1" stroke-width="1" stroke-linecap="square" stroke-linejoin="bevel" transform="matrix(0.885417,0,0,0.885417,6.19792,98.8125)"
font-family="Cantarell" font-size="13" font-weight="400" font-style="normal" 
>
<text fill="#000000" fill-opacity="1" stroke="none" xml:space="preserve" x="0" y="10" font-family="Cantarell" font-size="13" font-weight="400" font-style="normal" 
 >8</text>
</g>

<g fill="none" stroke="#000000" stroke-opacity="1" stroke-width="1" stroke-linecap="square" stroke-linejoin="bevel" transform="matrix(0.885417,0,0,0.885417,6.19792,98.8125)"
font-family="Cantarell" font-size="11.8056" font-weight="400" font-style="normal" 
>
</g>

<g fill="none" stroke="#000000" stroke-opacity="1" stroke-width="1" stroke-linecap="square" stroke-linejoin="bevel" transform="matrix(0.885417,0,0,0.885417,6.19792,98.8125)"
font-family="Cantarell" font-size="11.8056" font-weight="400" font-style="normal" 
>
</g>

<g fill="none" stroke="#000000" stroke-opacity="1" stroke-width="1" stroke-linecap="square" stroke-linejoin="bevel" transform="matrix(0.885417,0,0,0.885417,0,0)"
font-family="Cantarell" font-size="11.8056" font-weight="400" font-style="normal" 
>
</g>

<g fill="none" stroke="#000000" stroke-opacity="1" stroke-width="1" stroke-linecap="square" stroke-linejoin="bevel" transform="matrix(0.885417,0,0,0.885417,0,34.5313)"
font-family="Cantarell" font-size="11.8056" font-weight="400" font-style="normal" 
>
</g>

<g fill="none" stroke="#000000" stroke-opacity="1" stroke-width="1" stroke-linecap="square" stroke-linejoin="bevel" transform="matrix(0.885417,0,0,0.885417,0,34.5313)"
font-family="Cantarell" font-size="13" font-weight="400" font-style="normal" 
>
</g>

<g fill="none" stroke="#000000" stroke-opacity="1" stroke-width="1" stroke-linecap="square" stroke-linejoin="bevel" transform="matrix(0.885417,0,0,0.885417,0,34.5313)"
font-family="Cantarell" font-size="13" font-weight="400" font-style="normal" 
>
<text fill="#000000" fill-opacity="1" stroke="none" xml:space="preserve" x="0" y="10" font-family="Cantarell" font-size="13" font-weight="400" font-style="normal" 
 >10</text>
</g>

<g fill="none" stroke="#000000" stroke-opacity="1" stroke-width="1" stroke-linecap="square" stroke-linejoin="bevel" transform="matrix(0.885417,0,0,0.885417,0,34.5313)"
font-family="Cantarell" font-size="11.8056" font-weight="400" font-style="normal" 
>
</g>

<g fill="none" stroke="#000000" stroke-opacity="1" stroke-width="1" stroke-linecap="square" stroke-linejoin="bevel" transform="matrix(0.885417,0,0,0.885417,0,34.5313)"
font-family="Cantarell" font-size="11.8056" font-weight="400" font-style="normal" 
>
</g>

<g fill="none" stroke="#000000" stroke-opacity="1" stroke-width="1" stroke-linecap="square" stroke-linejoin="bevel" transform="matrix(0.885417,0,0,0.885417,0,0)"
font-family="Cantarell" font-size="11.8056" font-weight="400" font-style="normal" 
>
</g>

<g fill="none" stroke="#000000" stroke-opacity="1" stroke-width="1" stroke-linecap="square" stroke-linejoin="bevel" transform="matrix(0.885417,0,0,0.885417,0,0)"
font-family="Cantarell" font-size="11.8056" font-weight="400" font-style="normal" 
>
</g>

<g fill="none" stroke="#000000" stroke-opacity="1" stroke-width="1" stroke-linecap="butt" stroke-linejoin="bevel" transform="matrix(0.885417,0,0,0.885417,0,0)"
font-family="Cantarell" font-size="11.8056" font-weight="400" font-style="normal" 
>
<polyline fill="none" vector-effect="non-scaling-stroke" points="27,388.85 23,388.85 " />
<polyline fill="none" vector-effect="non-scaling-stroke" points="27,352.55 23,352.55 " />
<polyline fill="none" vector-effect="non-scaling-stroke" points="27,316.25 23,316.25 " />
<polyline fill="none" vector-effect="non-scaling-stroke" points="27,279.95 23,279.95 " />
<polyline fill="none" vector-effect="non-scaling-stroke" points="27,243.65 23,243.65 " />
<polyline fill="none" vector-effect="non-scaling-stroke" points="27,207.35 23,207.35 " />
<polyline fill="none" vector-effect="non-scaling-stroke" points="27,171.05 23,171.05 " />
<polyline fill="none" vector-effect="non-scaling-stroke" points="27,134.75 23,134.75 " />
<polyline fill="none" vector-effect="non-scaling-stroke" points="27,98.45 23,98.45 " />
<polyline fill="none" vector-effect="non-scaling-stroke" points="27,62.15 23,62.15 " />
<polyline fill="none" vector-effect="non-scaling-stroke" points="27,370.7 21,370.7 " />
<polyline fill="none" vector-effect="non-scaling-stroke" points="27,298.1 21,298.1 " />
<polyline fill="none" vector-effect="non-scaling-stroke" points="27,225.5 21,225.5 " />
<polyline fill="none" vector-effect="non-scaling-stroke" points="27,152.9 21,152.9 " />
<polyline fill="none" vector-effect="non-scaling-stroke" points="27,80.3 21,80.3 " />
<polyline fill="none" vector-effect="non-scaling-stroke" points="27,407 19,407 " />
<polyline fill="none" vector-effect="non-scaling-stroke" points="27,334.4 19,334.4 " />
<polyline fill="none" vector-effect="non-scaling-stroke" points="27,261.8 19,261.8 " />
<polyline fill="none" vector-effect="non-scaling-stroke" points="27,189.2 19,189.2 " />
<polyline fill="none" vector-effect="non-scaling-stroke" points="27,116.6 19,116.6 " />
<polyline fill="none" vector-effect="non-scaling-stroke" points="27,44 19,44 " />
</g>

<g fill="none" stroke="#000000" stroke-opacity="1" stroke-width="1" stroke-linecap="square" stroke-linejoin="bevel" transform="matrix(0.885417,0,0,0.885417,0,0)"
font-family="Cantarell" font-size="11.8056" font-weight="400" font-style="normal" 
>
</g>

<g fill="none" stroke="#000000" stroke-opacity="1" stroke-width="1" stroke-linecap="butt" stroke-linejoin="bevel" transform="matrix(0.885417,0,0,0.885417,0,0)"
font-family="Cantarell" font-size="11.8056" font-weight="400" font-style="normal" 
>
<polyline fill="none" vector-effect="non-scaling-stroke" points="27,44 27,407 " />
</g>

<g fill="none" stroke="#000000" stroke-opacity="1" stroke-width="1" stroke-linecap="square" stroke-linejoin="bevel" transform="matrix(0.885417,0,0,0.885417,0,0)"
font-family="Cantarell" font-size="11.8056" font-weight="400" font-style="normal" 
>
</g>

<g fill="none" stroke="#000000" stroke-opacity="1" stroke-width="1" stroke-linecap="square" stroke-linejoin="bevel" transform="matrix(0.885417,0,0,0.885417,0,0)"
font-family="Cantarell" font-size="11.8056" font-weight="400" font-style="normal" 
>
</g>

<g fill="none" stroke="#000000" stroke-opacity="1" stroke-width="1" stroke-linecap="square" stroke-linejoin="bevel" transform="matrix(0.885417,0,0,0.885417,0,0)"
font-family="Cantarell" font-size="12.9861" font-weight="400" font-style="normal" 
>
</g>

<g fill="none" stroke="#000000" stroke-opacity="1" stroke-width="1" stroke-linecap="square" stroke-linejoin="bevel" transform="matrix(0.885417,0,0,0.885417,21.25,383.385)"
font-family="Cantarell" font-size="11.8056" font-weight="400" font-style="normal" 
>
</g>

<g fill="none" stroke="#000000" stroke-opacity="1" stroke-width="1" stroke-linecap="square" stroke-linejoin="bevel" transform="matrix(0.885417,0,0,0.885417,21.25,383.385)"
font-family="Cantarell" font-size="12.9861" font-weight="400" font-style="normal" 
>
</g>

<g fill="none" stroke="#000000" stroke-opacity="1" stroke-width="1" stroke-linecap="square" stroke-linejoin="bevel" transform="matrix(0.885417,0,0,0.885417,21.25,383.385)"
font-family="Cantarell" font-size="15" font-weight="400" font-style="normal" 
>
</g>

<g fill="none" stroke="#000000" stroke-opacity="1" stroke-width="1" stroke-linecap="square" stroke-linejoin="bevel" transform="matrix(0.885417,0,0,0.885417,21.25,383.385)"
font-family="Cantarell" font-size="15" font-weight="400" font-style="normal" 
>
<text fill="#000000" fill-opacity="1" stroke="none" xml:space="preserve" x="430.5" y="16" font-family="Cantarell" font-size="15" font-weight="400" font-style="normal" 
 >time (s)</text>
</g>

<g fill="none" stroke="#000000" stroke-opacity="1" stroke-width="1" stroke-linecap="square" stroke-linejoin="bevel" transform="matrix(0.885417,0,0,0.885417,21.25,383.385)"
font-family="Cantarell" font-size="12.9861" font-weight="400" font-style="normal" 
>
</g>

<g fill="none" stroke="#000000" stroke-opacity="1" stroke-width="1" stroke-linecap="square" stroke-linejoin="bevel" transform="matrix(0.885417,0,0,0.885417,21.25,383.385)"
font-family="Cantarell" font-size="11.8056" font-weight="400" font-style="normal" 
>
</g>

<g fill="none" stroke="#000000" stroke-opacity="1" stroke-width="1" stroke-linecap="square" stroke-linejoin="bevel" transform="matrix(0.885417,0,0,0.885417,0,0)"
font-family="Cantarell" font-size="12.9861" font-weight="400" font-style="normal" 
>
</g>

<g fill="none" stroke="#000000" stroke-opacity="1" stroke-width="1" stroke-linecap="square" stroke-linejoin="bevel" transform="matrix(0.885417,0,0,0.885417,0,0)"
font-family="Cantarell" font-size="11.8056" font-weight="400" font-style="normal" 
>
</g>

<g fill="none" stroke="#000000" stroke-opacity="1" stroke-width="1" stroke-linecap="square" stroke-linejoin="bevel" transform="matrix(0.885417,0,0,0.885417,0,0)"
font-family="Cantarell" font-size="11.8056" font-weight="400" font-style="normal" 
>
</g>

<g fill="none" stroke="#000000" stroke-opacity="1" stroke-width="1" stroke-linecap="square" stroke-linejoin="bevel" transform="matrix(0.885417,0,0,0.885417,0,0)"
font-family="Cantarell" font-size="11.8056" font-weight="400" font-style="normal" 
>
</g>

<g fill="none" stroke="#000000" stroke-opacity="1" stroke-width="1" stroke-linecap="square" stroke-linejoin="bevel" transform="matrix(0.885417,0,0,0.885417,21.6927,372.76)"
font-family="Cantarell" font-size="11.8056" font-weight="400" font-style="normal" 
>
</g>

<g fill="none" stroke="#000000" stroke-opacity="1" stroke-width="1" stroke-linecap="square" stroke-linejoin="bevel" transform="matrix(0.885417,0,0,0.885417,21.6927,372.76)"
font-family="Cantarell" font-size="13" font-weight="400" font-style="normal" 
>
</g>

<g fill="none" stroke="#000000" stroke-opacity="1" stroke-width="1" stroke-linecap="square" stroke-linejoin="bevel" transform="matrix(0.885417,0,0,0.885417,21.6927,372.76)"
font-family="Cantarell" font-size="13" font-weight="400" font-style="normal" 
>
<text fill="#000000" fill-opacity="1" stroke="none" xml:space="preserve" x="0" y="10" font-family="Cantarell" font-size="13" font-weight="400" font-style="normal" 
 >0</text>
</g>

<g fill="none" stroke="#000000" stroke-opacity="1" stroke-width="1" stroke-linecap="square" stroke-linejoin="bevel" transform="matrix(0.885417,0,0,0.885417,21.6927,372.76)"
font-family="Cantarell" font-size="11.8056" font-weight="400" font-style="normal" 
>
</g>

<g fill="none" stroke="#000000" stroke-opacity="1" stroke-width="1" stroke-linecap="square" stroke-linejoin="bevel" transform="matrix(0.885417,0,0,0.885417,21.6927,372.76)"
font-family="Cantarell" font-size="11.8056" font-weight="400" font-style="normal" 
>
</g>

<g fill="none" stroke="#000000" stroke-opacity="1" stroke-width="1" stroke-linecap="square" stroke-linejoin="bevel" transform="matrix(0.885417,0,0,0.885417,0,0)"
font-family="Cantarell" font-size="11.8056" font-weight="400" font-style="normal" 
>
</g>

<g fill="none" stroke="#000000" stroke-opacity="1" stroke-width="1" stroke-linecap="square" stroke-linejoin="bevel" transform="matrix(0.885417,0,0,0.885417,220.69,372.76)"
font-family="Cantarell" font-size="11.8056" font-weight="400" font-style="normal" 
>
</g>

<g fill="none" stroke="#000000" stroke-opacity="1" stroke-width="1" stroke-linecap="square" stroke-linejoin="bevel" transform="matrix(0.885417,0,0,0.885417,220.69,372.76)"
font-family="Cantarell" font-size="13" font-weight="400" font-style="normal" 
>
</g>

<g fill="none" stroke="#000000" stroke-opacity="1" stroke-width="1" stroke-linecap="square" stroke-linejoin="bevel" transform="matrix(0.885417,0,0,0.885417,220.69,372.76)"
font-family="Cantarell" font-size="13" font-weight="400" font-style="normal" 
>
<text fill="#000000" fill-opacity="1" stroke="none" xml:space="preserve" x="0" y="10" font-family="Cantarell" font-size="13" font-weight="400" font-style="normal" 
 >5</text>
</g>

<g fill="none" stroke="#000000" stroke-opacity="1" stroke-width="1" stroke-linecap="square" stroke-linejoin="bevel" transform="matrix(0.885417,0,0,0.885417,220.69,372.76)"
font-family="Cantarell" font-size="11.8056" font-weight="400" font-style="normal" 
>
</g>

<g fill="none" stroke="#000000" stroke-opacity="1" stroke-width="1" stroke-linecap="square" stroke-linejoin="bevel" transform="matrix(0.885417,0,0,0.885417,220.69,372.76)"
font-family="Cantarell" font-size="11.8056" font-weight="400" font-style="normal" 
>
</g>

<g fill="none" stroke="#000000" stroke-opacity="1" stroke-width="1" stroke-linecap="square" stroke-linejoin="bevel" transform="matrix(0.885417,0,0,0.885417,0,0)"
font-family="Cantarell" font-size="11.8056" font-weight="400" font-style="normal" 
>
</g>

<g fill="none" stroke="#000000" stroke-opacity="1" stroke-width="1" stroke-linecap="square" stroke-linejoin="bevel" transform="matrix(0.885417,0,0,0.885417,416.589,372.76)"
font-family="Cantarell" font-size="11.8056" font-weight="400" font-style="normal" 
>
</g>

<g fill="none" stroke="#000000" stroke-opacity="1" stroke-width="1" stroke-linecap="square" stroke-linejoin="bevel" transform="matrix(0.885417,0,0,0.885417,416.589,372.76)"
font-family="Cantarell" font-size="13" font-weight="400" font-style="normal" 
>
</g>

<g fill="none" stroke="#000000" stroke-opacity="1" stroke-width="1" stroke-linecap="square" stroke-linejoin="bevel" transform="matrix(0.885417,0,0,0.885417,416.589,372.76)"
font-family="Cantarell" font-size="13" font-weight="400" font-style="normal" 
>
<text fill="#000000" fill-opacity="1" stroke="none" xml:space="preserve" x="0" y="10" font-family="Cantarell" font-size="13" font-weight="400" font-style="normal" 
 >10</text>
</g>

<g fill="none" stroke="#000000" stroke-opacity="1" stroke-width="1" stroke-linecap="square" stroke-linejoin="bevel" transform="matrix(0.885417,0,0,0.885417,416.589,372.76)"
font-family="Cantarell" font-size="11.8056" font-weight="400" font-style="normal" 
>
</g>

<g fill="none" stroke="#000000" stroke-opacity="1" stroke-width="1" stroke-linecap="square" stroke-linejoin="bevel" transform="matrix(0.885417,0,0,0.885417,416.589,372.76)"
font-family="Cantarell" font-size="11.8056" font-weight="400" font-style="normal" 
>
</g>

<g fill="none" stroke="#000000" stroke-opacity="1" stroke-width="1" stroke-linecap="square" stroke-linejoin="bevel" transform="matrix(0.885417,0,0,0.885417,0,0)"
font-family="Cantarell" font-size="11.8056" font-weight="400" font-style="normal" 
>
</g>

<g fill="none" stroke="#000000" stroke-opacity="1" stroke-width="1" stroke-linecap="square" stroke-linejoin="bevel" transform="matrix(0.885417,0,0,0.885417,615.586,372.76)"
font-family="Cantarell" font-size="11.8056" font-weight="400" font-style="normal" 
>
</g>

<g fill="none" stroke="#000000" stroke-opacity="1" stroke-width="1" stroke-linecap="square" stroke-linejoin="bevel" transform="matrix(0.885417,0,0,0.885417,615.586,372.76)"
font-family="Cantarell" font-size="13" font-weight="400" font-style="normal" 
>
</g>

<g fill="none" stroke="#000000" stroke-opacity="1" stroke-width="1" stroke-linecap="square" stroke-linejoin="bevel" transform="matrix(0.885417,0,0,0.885417,615.586,372.76)"
font-family="Cantarell" font-size="13" font-weight="400" font-style="normal" 
>
<text fill="#000000" fill-opacity="1" stroke="none" xml:space="preserve" x="0" y="10" font-family="Cantarell" font-size="13" font-weight="400" font-style="normal" 
 >15</text>
</g>

<g fill="none" stroke="#000000" stroke-opacity="1" stroke-width="1" stroke-linecap="square" stroke-linejoin="bevel" transform="matrix(0.885417,0,0,0.885417,615.586,372.76)"
font-family="Cantarell" font-size="11.8056" font-weight="400" font-style="normal" 
>
</g>

<g fill="none" stroke="#000000" stroke-opacity="1" stroke-width="1" stroke-linecap="square" stroke-linejoin="bevel" transform="matrix(0.885417,0,0,0.885417,615.586,372.76)"
font-family="Cantarell" font-size="11.8056" font-weight="400" font-style="normal" 
>
</g>

<g fill="none" stroke="#000000" stroke-opacity="1" stroke-width="1" stroke-linecap="square" stroke-linejoin="bevel" transform="matrix(0.885417,0,0,0.885417,0,0)"
font-family="Cantarell" font-size="11.8056" font-weight="400" font-style="normal" 
>
</g>

<g fill="none" stroke="#000000" stroke-opacity="1" stroke-width="1" stroke-linecap="square" stroke-linejoin="bevel" transform="matrix(0.885417,0,0,0.885417,814.583,372.76)"
font-family="Cantarell" font-size="11.8056" font-weight="400" font-style="normal" 
>
</g>

<g fill="none" stroke="#000000" stroke-opacity="1" stroke-width="1" stroke-linecap="square" stroke-linejoin="bevel" transform="matrix(0.885417,0,0,0.885417,814.583,372.76)"
font-family="Cantarell" font-size="13" font-weight="400" font-style="normal" 
>
</g>

<g fill="none" stroke="#000000" stroke-opacity="1" stroke-width="1" stroke-linecap="square" stroke-linejoin="bevel" transform="matrix(0.885417,0,0,0.885417,814.583,372.76)"
font-family="Cantarell" font-size="13" font-weight="400" font-style="normal" 
>
<text fill="#000000" fill-opacity="1" stroke="none" xml:space="preserve" x="0" y="10" font-family="Cantarell" font-size="13" font-weight="400" font-style="normal" 
 >20</text>
</g>

<g fill="none" stroke="#000000" stroke-opacity="1" stroke-width="1" stroke-linecap="square" stroke-linejoin="bevel" transform="matrix(0.885417,0,0,0.885417,814.583,372.76)"
font-family="Cantarell" font-size="11.8056" font-weight="400" font-style="normal" 
>
</g>

<g fill="none" stroke="#000000" stroke-opacity="1" stroke-width="1" stroke-linecap="square" stroke-linejoin="bevel" transform="matrix(0.885417,0,0,0.885417,814.583,372.76)"
font-family="Cantarell" font-size="11.8056" font-weight="400" font-style="normal" 
>
</g>

<g fill="none" stroke="#000000" stroke-opacity="1" stroke-width="1" stroke-linecap="square" stroke-linejoin="bevel" transform="matrix(0.885417,0,0,0.885417,0,0)"
font-family="Cantarell" font-size="11.8056" font-weight="400" font-style="normal" 
>
</g>

<g fill="none" stroke="#000000" stroke-opacity="1" stroke-width="1" stroke-linecap="square" stroke-linejoin="bevel" transform="matrix(0.885417,0,0,0.885417,0,0)"
font-family="Cantarell" font-size="11.8056" font-weight="400" font-style="normal" 
>
</g>

<g fill="none" stroke="#000000" stroke-opacity="1" stroke-width="1" stroke-linecap="butt" stroke-linejoin="bevel" transform="matrix(0.885417,0,0,0.885417,0,0)"
font-family="Cantarell" font-size="11.8056" font-weight="400" font-style="normal" 
>
<polyline fill="none" vector-effect="non-scaling-stroke" points="72.95,408 72.95,412 " />
<polyline fill="none" vector-effect="non-scaling-stroke" points="117.9,408 117.9,412 " />
<polyline fill="none" vector-effect="non-scaling-stroke" points="162.85,408 162.85,412 " />
<polyline fill="none" vector-effect="non-scaling-stroke" points="207.8,408 207.8,412 " />
<polyline fill="none" vector-effect="non-scaling-stroke" points="297.7,408 297.7,412 " />
<polyline fill="none" vector-effect="non-scaling-stroke" points="342.65,408 342.65,412 " />
<polyline fill="none" vector-effect="non-scaling-stroke" points="387.6,408 387.6,412 " />
<polyline fill="none" vector-effect="non-scaling-stroke" points="432.55,408 432.55,412 " />
<polyline fill="none" vector-effect="non-scaling-stroke" points="522.45,408 522.45,412 " />
<polyline fill="none" vector-effect="non-scaling-stroke" points="567.4,408 567.4,412 " />
<polyline fill="none" vector-effect="non-scaling-stroke" points="612.35,408 612.35,412 " />
<polyline fill="none" vector-effect="non-scaling-stroke" points="657.3,408 657.3,412 " />
<polyline fill="none" vector-effect="non-scaling-stroke" points="747.2,408 747.2,412 " />
<polyline fill="none" vector-effect="non-scaling-stroke" points="792.15,408 792.15,412 " />
<polyline fill="none" vector-effect="non-scaling-stroke" points="837.1,408 837.1,412 " />
<polyline fill="none" vector-effect="non-scaling-stroke" points="882.05,408 882.05,412 " />
<polyline fill="none" vector-effect="non-scaling-stroke" points="28,408 28,416 " />
<polyline fill="none" vector-effect="non-scaling-stroke" points="252.75,408 252.75,416 " />
<polyline fill="none" vector-effect="non-scaling-stroke" points="477.5,408 477.5,416 " />
<polyline fill="none" vector-effect="non-scaling-stroke" points="702.25,408 702.25,416 " />
<polyline fill="none" vector-effect="non-scaling-stroke" points="927,408 927,416 " />
</g>

<g fill="none" stroke="#000000" stroke-opacity="1" stroke-width="1" stroke-linecap="square" stroke-linejoin="bevel" transform="matrix(0.885417,0,0,0.885417,0,0)"
font-family="Cantarell" font-size="11.8056" font-weight="400" font-style="normal" 
>
</g>

<g fill="none" stroke="#000000" stroke-opacity="1" stroke-width="1" stroke-linecap="butt" stroke-linejoin="bevel" transform="matrix(0.885417,0,0,0.885417,0,0)"
font-family="Cantarell" font-size="11.8056" font-weight="400" font-style="normal" 
>
<polyline fill="none" vector-effect="non-scaling-stroke" points="28,408 927,408 " />
</g>

<g fill="none" stroke="#000000" stroke-opacity="1" stroke-width="1" stroke-linecap="square" stroke-linejoin="bevel" transform="matrix(0.885417,0,0,0.885417,0,0)"
font-family="Cantarell" font-size="11.8056" font-weight="400" font-style="normal" 
>
</g>

<g fill="none" stroke="#000000" stroke-opacity="1" stroke-width="1" stroke-linecap="square" stroke-linejoin="bevel" transform="matrix(0.885417,0,0,0.885417,0,0)"
font-family="Cantarell" font-size="11.8056" font-weight="400" font-style="normal" 
>
</g>

<g fill="none" stroke="#000000" stroke-opacity="1" stroke-width="1" stroke-linecap="square" stroke-linejoin="bevel" transform="matrix(0.885417,0,0,0.885417,0,0)"
font-family="Cantarell" font-size="12.9861" font-weight="400" font-style="normal" 
>
</g>

<g fill="none" stroke="#000000" stroke-opacity="1" stroke-width="1" stroke-linecap="square" stroke-linejoin="bevel" transform="matrix(1,0,0,1,0,0)"
font-family="Cantarell" font-size="12.9861" font-weight="400" font-style="normal" 
>
</g>
</g>
</svg>
