<?xml version="1.0" encoding="UTF-8" standalone="no"?>
<svg viewBox="0 0 615.748 294.488"
 xmlns="http://www.w3.org/2000/svg" xmlns:xlink="http://www.w3.org/1999/xlink"  version="1.2" baseProfile="tiny">
<title>Plot Document</title>
<desc>Generated with Qt</desc>
<defs>
</defs>
<g fill="none" stroke="black" stroke-width="1" fill-rule="evenodd" stroke-linecap="square" stroke-linejoin="bevel" >

<g fill="none" stroke="#000000" stroke-opacity="1" stroke-width="1" stroke-linecap="square" stroke-linejoin="bevel" transform="matrix(0.885417,0,0,0.885417,0,0)"
font-family="Cantarell" font-size="12.9861" font-weight="400" font-style="normal" 
>
</g>

<g fill="none" stroke="#000000" stroke-opacity="1" stroke-width="1" stroke-linecap="square" stroke-linejoin="bevel" transform="matrix(0.885417,0,0,0.885417,0,0)"
font-family="Cantarell" font-size="12.9861" font-weight="400" font-style="normal" 
>
</g>

<g fill="#ffffff" fill-opacity="1" stroke="none" transform="matrix(0.885417,0,0,0.885417,0,0)"
font-family="Cantarell" font-size="12.9861" font-weight="400" font-style="normal" 
>
<rect x="28" y="44" width="661" height="243"/>
</g>

<g fill="none" stroke="#000000" stroke-opacity="1" stroke-width="1" stroke-linecap="square" stroke-linejoin="bevel" transform="matrix(0.885417,0,0,0.885417,0,0)"
font-family="Cantarell" font-size="12.9861" font-weight="400" font-style="normal" 
>
</g>

<g fill="none" stroke="#c0c0c0" stroke-opacity="1" stroke-dasharray="1,2" stroke-dashoffset="0" stroke-width="1" stroke-linecap="butt" stroke-linejoin="bevel" transform="matrix(0.885417,0,0,0.885417,0,0)"
font-family="Cantarell" font-size="12.9861" font-weight="400" font-style="normal" 
>
<polyline fill="none" vector-effect="non-scaling-stroke" points="61,44 61,286 " />
<polyline fill="none" vector-effect="non-scaling-stroke" points="94,44 94,286 " />
<polyline fill="none" vector-effect="non-scaling-stroke" points="127,44 127,286 " />
<polyline fill="none" vector-effect="non-scaling-stroke" points="160,44 160,286 " />
<polyline fill="none" vector-effect="non-scaling-stroke" points="226,44 226,286 " />
<polyline fill="none" vector-effect="non-scaling-stroke" points="259,44 259,286 " />
<polyline fill="none" vector-effect="non-scaling-stroke" points="292,44 292,286 " />
<polyline fill="none" vector-effect="non-scaling-stroke" points="325,44 325,286 " />
<polyline fill="none" vector-effect="non-scaling-stroke" points="391,44 391,286 " />
<polyline fill="none" vector-effect="non-scaling-stroke" points="424,44 424,286 " />
<polyline fill="none" vector-effect="non-scaling-stroke" points="457,44 457,286 " />
<polyline fill="none" vector-effect="non-scaling-stroke" points="490,44 490,286 " />
<polyline fill="none" vector-effect="non-scaling-stroke" points="556,44 556,286 " />
<polyline fill="none" vector-effect="non-scaling-stroke" points="589,44 589,286 " />
<polyline fill="none" vector-effect="non-scaling-stroke" points="622,44 622,286 " />
<polyline fill="none" vector-effect="non-scaling-stroke" points="655,44 655,286 " />
<polyline fill="none" vector-effect="non-scaling-stroke" points="28,273.9 688,273.9 " />
<polyline fill="none" vector-effect="non-scaling-stroke" points="28,249.7 688,249.7 " />
<polyline fill="none" vector-effect="non-scaling-stroke" points="28,225.5 688,225.5 " />
<polyline fill="none" vector-effect="non-scaling-stroke" points="28,201.3 688,201.3 " />
<polyline fill="none" vector-effect="non-scaling-stroke" points="28,177.1 688,177.1 " />
<polyline fill="none" vector-effect="non-scaling-stroke" points="28,152.9 688,152.9 " />
<polyline fill="none" vector-effect="non-scaling-stroke" points="28,128.7 688,128.7 " />
<polyline fill="none" vector-effect="non-scaling-stroke" points="28,104.5 688,104.5 " />
<polyline fill="none" vector-effect="non-scaling-stroke" points="28,80.3 688,80.3 " />
<polyline fill="none" vector-effect="non-scaling-stroke" points="28,56.1 688,56.1 " />
<polyline fill="none" vector-effect="non-scaling-stroke" points="28,261.8 688,261.8 " />
<polyline fill="none" vector-effect="non-scaling-stroke" points="28,213.4 688,213.4 " />
<polyline fill="none" vector-effect="non-scaling-stroke" points="28,165 688,165 " />
<polyline fill="none" vector-effect="non-scaling-stroke" points="28,116.6 688,116.6 " />
<polyline fill="none" vector-effect="non-scaling-stroke" points="28,68.2 688,68.2 " />
</g>

<g fill="none" stroke="#a0a0a4" stroke-opacity="1" stroke-width="1" stroke-linecap="butt" stroke-linejoin="bevel" transform="matrix(0.885417,0,0,0.885417,0,0)"
font-family="Cantarell" font-size="12.9861" font-weight="400" font-style="normal" 
>
<polyline fill="none" vector-effect="none" points="28,44 28,286 " />
<polyline fill="none" vector-effect="none" points="193,44 193,286 " />
<polyline fill="none" vector-effect="none" points="358,44 358,286 " />
<polyline fill="none" vector-effect="none" points="523,44 523,286 " />
<polyline fill="none" vector-effect="none" points="688,44 688,286 " />
<polyline fill="none" vector-effect="none" points="28,286 688,286 " />
<polyline fill="none" vector-effect="none" points="28,237.6 688,237.6 " />
<polyline fill="none" vector-effect="none" points="28,189.2 688,189.2 " />
<polyline fill="none" vector-effect="none" points="28,140.8 688,140.8 " />
<polyline fill="none" vector-effect="none" points="28,92.4 688,92.4 " />
<polyline fill="none" vector-effect="none" points="28,44 688,44 " />
</g>

<g fill="none" stroke="#000000" stroke-opacity="1" stroke-width="1" stroke-linecap="square" stroke-linejoin="bevel" transform="matrix(0.885417,0,0,0.885417,0,0)"
font-family="Cantarell" font-size="12.9861" font-weight="400" font-style="normal" 
>
</g>

<g fill="none" stroke="#000000" stroke-opacity="1" stroke-width="1" stroke-linecap="square" stroke-linejoin="bevel" transform="matrix(0.885417,0,0,0.885417,0,0)"
font-family="Cantarell" font-size="12.9861" font-weight="400" font-style="normal" 
>
</g>

<g fill="none" stroke="#f57900" stroke-opacity="1" stroke-dasharray="2,4" stroke-dashoffset="0" stroke-width="2" stroke-linecap="square" stroke-linejoin="bevel" transform="matrix(0.885417,0,0,0.885417,0,0)"
font-family="Cantarell" font-size="12.9861" font-weight="400" font-style="normal" 
>
<polyline fill="none" vector-effect="none" points="28,165 29.32,165 30.64,165 31.3,165 31.96,165 33.28,165 34.6,165 35.92,165 37.24,165 37.9,165 38.56,165 39.88,165 41.2,165 42.52,165 43.84,165 44.5,165 45.16,165 46.48,165 47.8,165 49.12,165 50.44,165 51.1,165 51.76,165 53.08,165 54.4,165 55.72,165 57.04,165 57.7,165 58.36,165 59.68,165 61,165 62.32,165 63.64,165 64.3,165 64.96,165 66.28,165 67.6,165 68.92,165 70.24,165 70.9,165 71.56,165 72.88,165 74.2,165 75.52,165 76.84,165 77.5,165 78.16,165 79.48,165 80.8,165 82.12,165 83.44,165 84.1,165 84.76,165 86.08,165 87.4,165 88.72,165 90.04,165 90.7,165 91.36,165 92.68,165 94,165 95.32,165 96.64,165 97.3,165 97.96,165 99.28,165 100.6,165 101.92,165 103.24,165 103.9,165 104.56,165 105.88,165 107.2,165 108.52,165 109.84,165 110.5,165 111.16,165 112.48,165 113.8,165 115.12,165 116.44,165 117.1,165 117.76,165 119.08,165 120.4,165 121.72,165 123.04,165 123.7,165 124.36,165 125.68,165 127,165 128.32,165 129.64,165 130.3,165 130.96,165 132.28,165 133.6,165 134.92,165 136.24,165 136.9,165 137.56,165 138.88,165 140.2,165 141.52,165 142.84,165 143.5,165 144.16,165 145.48,165 146.8,165 148.12,165 149.44,165 150.1,165 150.76,165 152.08,165 153.4,165 154.72,165 156.04,165 156.7,165 157.36,165 158.68,165 160,165 161.32,165 162.64,165 163.3,165 163.96,165 165.28,165 166.6,165 167.92,165 169.24,165 169.9,165 170.56,165 171.88,165 173.2,165 174.52,165 175.84,165 176.5,165 177.16,165 178.48,165 179.8,165 181.12,165 182.44,165 183.1,165 183.76,165 185.08,165 186.4,165 187.72,165 189.04,165 189.7,165 190.36,165 191.68,165 193,165 193,165 193,189.2 194.32,189.2 195.64,189.2 196.3,189.2 196.96,189.2 198.28,189.2 199.6,189.2 200.92,189.2 202.24,189.2 202.9,189.2 203.56,189.2 204.88,189.2 206.2,189.2 207.52,189.2 208.84,189.2 209.5,189.2 210.16,189.2 211.48,189.2 212.8,189.2 214.12,189.2 215.44,189.2 216.1,189.2 216.76,189.2 218.08,189.2 219.4,189.2 220.72,189.2 222.04,189.2 222.7,189.2 223.36,189.2 224.68,189.2 226,189.2 227.32,189.2 228.64,189.2 229.3,189.2 229.96,189.2 231.28,189.2 232.6,189.2 233.92,189.2 235.24,189.2 235.9,189.2 236.56,189.2 237.88,189.2 239.2,189.2 240.52,189.2 241.84,189.2 242.5,189.2 243.16,189.2 244.48,189.2 245.8,189.2 247.12,189.2 248.44,189.2 249.1,189.2 249.76,189.2 251.08,189.2 252.4,189.2 253.72,189.2 255.04,189.2 255.7,189.2 256.36,189.2 257.68,189.2 259,189.2 260.32,189.2 261.64,189.2 262.3,189.2 262.96,189.2 264.28,189.2 265.6,189.2 266.92,189.2 268.24,189.2 268.9,189.2 269.56,189.2 270.88,189.2 272.2,189.2 273.52,189.2 274.84,189.2 275.5,189.2 276.16,189.2 277.48,189.2 278.8,189.2 280.12,189.2 281.44,189.2 282.1,189.2 282.76,189.2 284.08,189.2 285.4,189.2 286.72,189.2 288.04,189.2 288.7,189.2 289.36,189.2 290.68,189.2 292,189.2 293.32,189.2 294.64,189.2 295.3,189.2 295.96,189.2 297.28,189.2 298.6,189.2 299.92,189.2 301.24,189.2 301.9,189.2 302.56,189.2 303.88,189.2 305.2,189.2 306.52,189.2 307.84,189.2 308.5,189.2 309.16,189.2 310.48,189.2 311.8,189.2 313.12,189.2 314.44,189.2 315.1,189.2 315.76,189.2 317.08,189.2 318.4,189.2 319.72,189.2 321.04,189.2 321.7,189.2 322.36,189.2 323.68,189.2 325,189.2 326.32,189.2 327.64,189.2 328.3,189.2 328.96,189.2 330.28,189.2 331.6,189.2 332.92,189.2 334.24,189.2 334.9,189.2 335.56,189.2 336.88,189.2 338.2,189.2 339.52,189.2 340.84,189.2 341.5,189.2 342.16,189.2 343.48,189.2 344.8,189.2 346.12,189.2 347.44,189.2 348.1,189.2 348.76,189.2 350.08,189.2 351.4,189.2 352.72,189.2 354.04,189.2 354.7,189.2 355.36,189.2 356.68,189.2 358,189.2 358,165 359.32,165 360.64,165 361.3,165 361.96,165 363.28,165 364.6,165 365.92,165 367.24,165 367.9,165 368.56,165 369.88,165 371.2,165 372.52,165 373.84,165 374.5,165 375.16,165 376.48,165 377.8,165 379.12,165 380.44,165 381.1,165 381.76,165 383.08,165 384.4,165 385.72,165 387.04,165 387.7,165 388.36,165 389.68,165 391,165 392.32,165 393.64,165 394.3,165 394.96,165 396.28,165 397.6,165 398.92,165 400.24,165 400.9,165 401.56,165 402.88,165 404.2,165 405.52,165 406.84,165 407.5,165 408.16,165 409.48,165 410.8,165 412.12,165 413.44,165 414.1,165 414.76,165 416.08,165 417.4,165 418.72,165 420.04,165 420.7,165 421.36,165 422.68,165 424,165 425.32,165 426.64,165 427.3,165 427.96,165 429.28,165 430.6,165 431.92,165 433.24,165 433.9,165 434.56,165 435.88,165 437.2,165 438.52,165 439.84,165 440.5,165 441.16,165 442.48,165 443.8,165 445.12,165 446.44,165 447.1,165 447.76,165 449.08,165 450.4,165 450.4,165 451.72,165 453.04,165 453.7,165 454.36,165 455.68,165 457,165 457,165 458.32,165 459.64,165 460.3,165 460.96,165 462.28,165 463.6,165 464.92,165 466.24,165 466.9,165 467.56,165 468.88,165 470.2,165 470.2,165 471.52,165 472.84,165 473.5,165 474.16,165 475.48,165 476.8,165 476.8,165 478.12,165 479.44,165 480.1,165 480.76,165 482.08,165 483.4,165 483.4,165 484.72,165 486.04,165 486.7,165 487.36,165 488.68,165 490,165 490,165 491.32,165 492.64,165 493.3,165 493.96,165 495.28,165 496.6,165 496.6,165 497.92,165 499.24,165 499.9,165 500.56,165 501.88,165 503.2,165 503.2,165 504.52,165 505.84,165 506.5,165 507.16,165 508.48,165 509.8,165 509.8,165 511.12,165 512.44,165 513.1,165 513.76,165 515.08,165 516.4,165 516.4,165 517.72,165 519.04,165 519.7,165 520.36,165 521.68,165 523,165 523,165 523,165 523,189.2 524.32,189.2 525.64,189.2 526.3,189.2 526.96,189.2 528.28,189.2 529.6,189.2 529.6,189.2 530.92,189.2 532.24,189.2 532.9,189.2 533.56,189.2 534.88,189.2 536.2,189.2 536.2,189.2 537.52,189.2 538.84,189.2 539.5,189.2 540.16,189.2 541.48,189.2 542.8,189.2 542.8,189.2 544.12,189.2 545.44,189.2 546.1,189.2 546.76,189.2 548.08,189.2 549.4,189.2 549.4,189.2 550.72,189.2 552.04,189.2 552.7,189.2 553.36,189.2 554.68,189.2 556,189.2 556,189.2 557.32,189.2 558.64,189.2 559.3,189.2 559.96,189.2 561.28,189.2 562.6,189.2 562.6,189.2 563.92,189.2 565.24,189.2 565.9,189.2 566.56,189.2 567.88,189.2 569.2,189.2 569.2,189.2 570.52,189.2 571.84,189.2 572.5,189.2 573.16,189.2 574.48,189.2 575.8,189.2 575.8,189.2 577.12,189.2 578.44,189.2 579.1,189.2 579.76,189.2 581.08,189.2 582.4,189.2 582.4,189.2 583.72,189.2 585.04,189.2 585.7,189.2 586.36,189.2 587.68,189.2 589,189.2 590.32,189.2 591.64,189.2 592.3,189.2 592.96,189.2 594.28,189.2 595.6,189.2 596.92,189.2 598.24,189.2 598.9,189.2 599.56,189.2 600.88,189.2 602.2,189.2 603.52,189.2 604.84,189.2 605.5,189.2 606.16,189.2 607.48,189.2 608.8,189.2 610.12,189.2 611.44,189.2 612.1,189.2 612.76,189.2 614.08,189.2 615.4,189.2 616.72,189.2 618.04,189.2 618.7,189.2 619.36,189.2 620.68,189.2 622,189.2 623.32,189.2 624.64,189.2 625.3,189.2 625.96,189.2 627.28,189.2 628.6,189.2 629.92,189.2 631.24,189.2 631.9,189.2 632.56,189.2 633.88,189.2 635.2,189.2 636.52,189.2 637.84,189.2 638.5,189.2 639.16,189.2 640.48,189.2 641.8,189.2 643.12,189.2 644.44,189.2 645.1,189.2 645.76,189.2 647.08,189.2 648.4,189.2 649.72,189.2 651.04,189.2 651.7,189.2 652.36,189.2 653.68,189.2 655,189.2 656.32,189.2 657.64,189.2 658.3,189.2 658.96,189.2 660.28,189.2 661.6,189.2 662.92,189.2 664.24,189.2 664.9,189.2 665.56,189.2 666.88,189.2 668.2,189.2 669.52,189.2 670.84,189.2 671.5,189.2 672.16,189.2 673.48,189.2 674.8,189.2 676.12,189.2 677.44,189.2 678.1,189.2 678.76,189.2 680.08,189.2 681.4,189.2 682.72,189.2 684.04,189.2 684.7,189.2 685.36,189.2 686.68,189.2 688,189.2 688,165 " />
</g>

<g fill="none" stroke="#000000" stroke-opacity="1" stroke-width="1" stroke-linecap="square" stroke-linejoin="bevel" transform="matrix(0.885417,0,0,0.885417,0,0)"
font-family="Cantarell" font-size="12.9861" font-weight="400" font-style="normal" 
>
</g>

<g fill="none" stroke="#000000" stroke-opacity="1" stroke-width="1" stroke-linecap="square" stroke-linejoin="bevel" transform="matrix(0.885417,0,0,0.885417,0,0)"
font-family="Cantarell" font-size="12.9861" font-weight="400" font-style="normal" 
>
</g>

<g fill="none" stroke="#000000" stroke-opacity="1" stroke-width="1" stroke-linecap="square" stroke-linejoin="bevel" transform="matrix(0.885417,0,0,0.885417,0,0)"
font-family="Cantarell" font-size="12.9861" font-weight="400" font-style="normal" 
>
</g>

<g fill="none" stroke="#ff0000" stroke-opacity="1" stroke-width="2" stroke-linecap="square" stroke-linejoin="bevel" transform="matrix(0.885417,0,0,0.885417,0,0)"
font-family="Cantarell" font-size="12.9861" font-weight="400" font-style="normal" 
>
<polyline fill="none" vector-effect="none" points="28,213.4 29.32,213.176 30.64,212.572 31.3,212.155 31.96,211.673 33.28,210.547 34.6,209.252 35.92,207.833 37.24,206.326 37.9,205.55 38.56,204.761 39.88,203.162 41.2,201.546 42.52,199.929 43.84,198.323 44.5,197.527 45.16,196.737 46.48,195.178 47.8,193.651 49.12,192.16 50.44,190.708 51.1,189.998 51.76,189.297 53.08,187.929 54.4,186.603 55.72,185.321 57.04,184.082 57.7,183.479 58.36,182.886 59.68,181.732 61,180.619 62.32,179.546 63.64,178.513 64.3,178.011 64.96,177.519 66.28,176.561 67.6,175.64 68.92,174.754 70.24,173.901 70.9,173.487 71.56,173.081 72.88,172.293 74.2,171.535 75.52,170.806 76.84,170.105 77.5,169.765 78.16,169.432 79.48,168.785 80.8,168.163 82.12,167.565 83.44,166.991 84.1,166.712 84.76,166.439 86.08,165.908 87.4,165.398 88.72,164.908 90.04,164.438 90.7,164.209 91.36,163.986 92.68,163.551 94,163.133 95.32,162.732 96.64,162.347 97.3,162.16 97.96,161.976 99.28,161.62 100.6,161.279 101.92,160.95 103.24,160.634 103.9,160.481 104.56,160.331 105.88,160.04 107.2,159.76 108.52,159.491 109.84,159.232 110.5,159.107 111.16,158.984 112.48,158.745 113.8,158.516 115.12,158.297 116.44,158.088 117.1,157.988 117.76,157.891 119.08,157.714 120.4,157.555 121.72,157.418 123.04,157.307 123.7,157.258 124.36,157.217 125.68,157.154 127,157.113 128.32,157.097 129.64,157.106 130.3,157.118 130.96,157.135 132.28,157.187 133.6,157.259 134.92,157.349 136.24,157.459 136.9,157.519 137.56,157.583 138.88,157.723 140.2,157.877 141.52,158.043 142.84,158.22 143.5,158.311 144.16,158.405 145.48,158.6 146.8,158.802 148.12,159.009 149.44,159.221 150.1,159.329 150.76,159.437 152.08,159.655 153.4,159.875 154.72,160.095 156.04,160.315 156.7,160.425 157.36,160.535 158.68,160.752 160,160.968 161.32,161.18 162.64,161.39 163.3,161.493 163.96,161.595 165.28,161.795 166.6,161.991 167.92,162.182 169.24,162.368 169.9,162.459 170.56,162.548 171.88,162.722 173.2,162.89 174.52,163.052 175.84,163.207 176.5,163.283 177.16,163.357 178.48,163.5 179.8,163.636 181.12,163.767 182.44,163.89 183.1,163.95 183.76,164.008 185.08,164.12 186.4,164.225 187.72,164.324 189.04,164.418 189.7,164.463 190.36,164.506 191.68,164.588 193,164.665 193,164.665 194.32,164.736 195.64,164.803 196.3,164.834 196.96,164.894 198.28,165.163 199.6,165.596 200.92,166.167 202.24,166.855 202.9,167.232 203.56,167.63 204.88,168.482 206.2,169.389 207.52,170.337 208.84,171.316 209.5,171.812 210.16,172.311 211.48,173.316 212.8,174.322 214.12,175.32 215.44,176.306 216.1,176.793 216.76,177.275 218.08,178.221 219.4,179.142 220.72,180.034 222.04,180.894 222.7,181.312 223.36,181.722 224.68,182.515 226,183.273 227.32,183.995 228.64,184.68 229.3,185.009 229.96,185.329 231.28,185.94 232.6,186.515 233.92,187.055 235.24,187.558 235.9,187.797 236.56,188.028 237.88,188.463 239.2,188.866 240.52,189.237 241.84,189.577 242.5,189.737 243.16,189.889 244.48,190.171 245.8,190.426 247.12,190.655 248.44,190.86 249.1,190.953 249.76,191.041 251.08,191.2 252.4,191.338 253.72,191.456 255.04,191.555 255.7,191.598 256.36,191.637 257.68,191.702 259,191.753 260.32,191.789 261.64,191.811 262.3,191.819 262.96,191.823 264.28,191.822 265.6,191.812 266.92,191.793 268.24,191.764 268.9,191.747 269.56,191.729 270.88,191.686 272.2,191.638 273.52,191.584 274.84,191.525 275.5,191.494 276.16,191.462 277.48,191.396 278.8,191.327 280.12,191.255 281.44,191.181 282.1,191.144 282.76,191.107 284.08,191.03 285.4,190.954 286.72,190.877 288.04,190.799 288.7,190.761 289.36,190.723 290.68,190.647 292,190.571 293.32,190.497 294.64,190.424 295.3,190.388 295.96,190.352 297.28,190.282 298.6,190.214 299.92,190.148 301.24,190.083 301.9,190.052 302.56,190.021 303.88,189.96 305.2,189.902 306.52,189.846 307.84,189.793 308.5,189.767 309.16,189.741 310.48,189.692 311.8,189.645 313.12,189.6 314.44,189.558 315.1,189.538 315.76,189.518 317.08,189.48 318.4,189.444 319.72,189.41 321.04,189.379 321.7,189.364 322.36,189.349 323.68,189.321 325,189.295 326.32,189.271 327.64,189.249 328.3,189.239 328.96,189.229 330.28,189.21 331.6,189.192 332.92,189.177 334.24,189.162 334.9,189.156 335.56,189.149 336.88,189.138 338.2,189.127 339.52,189.118 340.84,189.11 341.5,189.106 342.16,189.103 343.48,189.097 344.8,189.091 346.12,189.087 347.44,189.084 348.1,189.082 348.76,189.081 350.08,189.079 351.4,189.077 352.72,189.077 354.04,189.076 354.7,189.076 355.36,189.077 356.68,189.077 358,189.079 359.32,189.08 360.64,189.082 361.3,189.083 361.96,189.055 363.28,188.845 364.6,188.467 365.92,187.946 367.24,187.306 367.9,186.95 368.56,186.573 369.88,185.761 371.2,184.89 372.52,183.978 373.84,183.04 374.5,182.565 375.16,182.087 376.48,181.131 377.8,180.178 379.12,179.234 380.44,178.305 381.1,177.847 381.76,177.393 383.08,176.502 384.4,175.633 385.72,174.788 387.04,173.968 387.7,173.567 388.36,173.173 389.68,172.403 391,171.66 392.32,170.942 393.64,170.251 394.3,169.916 394.96,169.588 396.28,168.956 397.6,168.353 398.92,167.783 400.24,167.245 400.9,166.987 401.56,166.737 402.88,166.264 404.2,165.821 405.52,165.409 406.84,165.029 407.5,164.849 408.16,164.677 409.48,164.356 410.8,164.062 412.12,163.795 413.44,163.555 414.1,163.443 414.76,163.338 416.08,163.147 417.4,162.977 418.72,162.83 420.04,162.703 420.7,162.646 421.36,162.594 422.68,162.505 424,162.432 425.32,162.374 426.64,162.333 427.3,162.317 427.96,162.304 429.28,162.288 430.6,162.284 431.92,162.291 433.24,162.308 433.9,162.32 434.56,162.333 435.88,162.367 437.2,162.408 438.52,162.456 439.84,162.51 440.5,162.538 441.16,162.568 442.48,162.631 443.8,162.698 445.12,162.768 446.44,162.841 447.1,162.879 447.76,162.916 449.08,162.993 450.4,163.072 450.4,163.072 451.72,163.151 453.04,163.23 453.7,163.27 454.36,163.31 455.68,163.389 457,163.468 457,163.468 458.32,163.546 459.64,163.624 460.3,163.662 460.96,163.7 462.28,163.774 463.6,163.847 464.92,163.919 466.24,163.988 466.9,164.022 467.56,164.056 468.88,164.121 470.2,164.185 470.2,164.185 471.52,164.246 472.84,164.305 473.5,164.333 474.16,164.361 475.48,164.415 476.8,164.467 476.8,164.467 478.12,164.517 479.44,164.564 480.1,164.587 480.76,164.609 482.08,164.651 483.4,164.692 483.4,164.692 484.72,164.73 486.04,164.766 486.7,164.783 487.36,164.8 488.68,164.831 490,164.861 490,164.861 491.32,164.888 492.64,164.914 493.3,164.926 493.96,164.938 495.28,164.96 496.6,164.98 496.6,164.98 497.92,164.999 499.24,165.016 499.9,165.024 500.56,165.032 501.88,165.046 503.2,165.058 503.2,165.058 504.52,165.07 505.84,165.08 506.5,165.085 507.16,165.089 508.48,165.097 509.8,165.104 509.8,165.104 511.12,165.109 512.44,165.114 513.1,165.116 513.76,165.118 515.08,165.121 516.4,165.124 516.4,165.124 517.72,165.126 519.04,165.127 519.7,165.127 520.36,165.127 521.68,165.127 523,165.127 523,165.127 523,165.127 524.32,165.126 525.64,165.124 526.3,165.124 526.96,165.152 528.28,165.363 529.6,165.741 529.6,165.741 530.92,166.262 532.24,166.902 532.9,167.258 533.56,167.635 534.88,168.448 536.2,169.319 536.2,169.319 537.52,170.235 538.84,171.184 539.5,171.667 540.16,172.153 541.48,173.135 542.8,174.12 542.8,174.12 544.12,175.101 545.44,176.071 546.1,176.551 546.76,177.026 548.08,177.961 549.4,178.872 549.4,178.872 550.72,179.757 552.04,180.611 552.7,181.028 553.36,181.436 554.68,182.226 556,182.983 556,182.983 557.32,183.705 558.64,184.39 559.3,184.721 559.96,185.042 561.28,185.656 562.6,186.235 562.6,186.235 563.92,186.779 565.24,187.288 565.9,187.53 566.56,187.764 567.88,188.206 569.2,188.616 569.2,188.616 570.52,188.994 571.84,189.342 572.5,189.505 573.16,189.661 574.48,189.951 575.8,190.215 575.8,190.215 577.12,190.453 578.44,190.665 579.1,190.763 579.76,190.856 581.08,191.023 582.4,191.169 582.4,191.169 583.72,191.296 585.04,191.403 585.7,191.45 586.36,191.494 587.68,191.567 589,191.625 590.32,191.669 591.64,191.699 592.3,191.71 592.96,191.718 594.28,191.725 595.6,191.721 596.92,191.709 598.24,191.687 598.9,191.673 599.56,191.658 600.88,191.621 602.2,191.578 603.52,191.529 604.84,191.476 605.5,191.448 606.16,191.418 607.48,191.356 608.8,191.292 610.12,191.224 611.44,191.155 612.1,191.119 612.76,191.084 614.08,191.011 615.4,190.937 616.72,190.863 618.04,190.789 618.7,190.752 619.36,190.715 620.68,190.641 622,190.568 623.32,190.496 624.64,190.425 625.3,190.39 625.96,190.355 627.28,190.287 628.6,190.22 629.92,190.155 631.24,190.091 631.9,190.06 632.56,190.03 633.88,189.971 635.2,189.913 636.52,189.858 637.84,189.805 638.5,189.779 639.16,189.754 640.48,189.705 641.8,189.658 643.12,189.614 644.44,189.572 645.1,189.551 645.76,189.532 647.08,189.494 648.4,189.458 649.72,189.424 651.04,189.392 651.7,189.377 652.36,189.362 653.68,189.334 655,189.308 656.32,189.284 657.64,189.261 658.3,189.251 658.96,189.241 660.28,189.221 661.6,189.204 662.92,189.188 664.24,189.173 664.9,189.166 665.56,189.159 666.88,189.147 668.2,189.137 669.52,189.127 670.84,189.118 671.5,189.114 672.16,189.111 673.48,189.104 674.8,189.099 676.12,189.094 677.44,189.09 678.1,189.088 678.76,189.087 680.08,189.085 681.4,189.083 682.72,189.082 684.04,189.081 684.7,189.081 685.36,189.081 686.68,189.081 688,189.082 " />
</g>

<g fill="none" stroke="#000000" stroke-opacity="1" stroke-width="1" stroke-linecap="square" stroke-linejoin="bevel" transform="matrix(0.885417,0,0,0.885417,0,0)"
font-family="Cantarell" font-size="12.9861" font-weight="400" font-style="normal" 
>
</g>

<g fill="none" stroke="#000000" stroke-opacity="1" stroke-width="1" stroke-linecap="square" stroke-linejoin="bevel" transform="matrix(0.885417,0,0,0.885417,0,0)"
font-family="Cantarell" font-size="12.9861" font-weight="400" font-style="normal" 
>
</g>

<g fill="none" stroke="#000000" stroke-opacity="1" stroke-width="1" stroke-linecap="square" stroke-linejoin="bevel" transform="matrix(0.885417,0,0,0.885417,0,0)"
font-family="Cantarell" font-size="12.9861" font-weight="400" font-style="normal" 
>
</g>

<g fill="none" stroke="#0059de" stroke-opacity="1" stroke-width="2" stroke-linecap="square" stroke-linejoin="bevel" transform="matrix(0.885417,0,0,0.885417,0,0)"
font-family="Cantarell" font-size="12.9861" font-weight="400" font-style="normal" 
>
<polyline fill="none" vector-effect="none" points="28,286 28,44 29.32,44 30.64,44 31.3,44 31.96,44 33.28,44 34.6,44 35.92,44 37.24,44 37.9,44 38.56,44 39.88,44 41.2,44 42.52,44 43.84,44 44.5,44 45.16,44 46.48,44 47.8,44 49.12,44 50.44,44 51.1,44 51.76,44 53.08,44 54.4,44 55.72,44 57.04,44 57.7,44 58.36,44 59.68,44 61,44 62.32,44 63.64,44 64.3,44 64.96,44 66.28,44 67.6,44 68.92,44 70.24,44 70.9,44 71.56,44 72.88,44 74.2,44 75.52,44 76.84,44 77.5,44 78.16,44 79.48,44 80.8,44 82.12,44 83.44,44 84.1,44 84.76,44 86.08,44 87.4,44 88.72,44 90.04,44 90.7,44 91.36,44 92.68,44 94,44 95.32,44 96.64,44 97.3,44 97.96,44 99.28,44 100.6,44 101.92,44 103.24,44 103.9,44 104.56,44 105.88,44 107.2,44 108.52,44 109.84,44 110.5,44 111.16,44 112.48,44 113.8,44 113.8,45.119 115.12,45.119 116.44,45.119 117.1,45.119 117.1,52.3938 117.76,52.3938 119.08,52.3938 120.4,52.3938 120.4,59.5663 121.72,59.5663 123.04,59.5663 123.7,59.5663 123.7,66.3658 124.36,66.3658 125.68,66.3658 127,66.3658 127,72.6209 128.32,72.6209 129.64,72.6209 130.3,72.6209 130.3,78.2334 130.96,78.2334 132.28,78.2334 133.6,78.2334 133.6,83.1578 134.92,83.1578 136.24,83.1578 136.9,83.1578 136.9,87.387 137.56,87.387 138.88,87.387 140.2,87.387 140.2,90.9402 141.52,90.9402 142.84,90.9402 143.5,90.9402 143.5,93.8552 144.16,93.8552 145.48,93.8552 146.8,93.8552 146.8,96.1813 148.12,96.1813 149.44,96.1813 150.1,96.1813 150.1,97.9749 150.76,97.9749 152.08,97.9749 153.4,97.9749 153.4,99.2956 154.72,99.2956 156.04,99.2956 156.7,99.2956 156.7,100.204 157.36,100.204 158.68,100.204 160,100.204 160,100.758 161.32,100.758 162.64,100.758 163.3,100.758 163.3,101.014 163.96,101.014 165.28,101.014 166.6,101.014 166.6,101.025 167.92,101.025 169.24,101.025 169.9,101.025 169.9,100.839 170.56,100.839 171.88,100.839 173.2,100.839 173.2,100.497 174.52,100.497 175.84,100.497 176.5,100.497 176.5,100.04 177.16,100.04 178.48,100.04 179.8,100.04 179.8,99.499 181.12,99.499 182.44,99.499 183.1,99.499 183.1,98.9042 183.76,98.9042 185.08,98.9042 186.4,98.9042 186.4,98.2796 187.72,98.2796 189.04,98.2796 189.7,98.2796 189.7,97.6454 190.36,97.6454 191.68,97.6454 193,97.6454 193,97.018 193,97.018 194.32,97.018 195.64,97.018 196.3,97.018 196.3,217.41 196.96,217.41 198.28,217.41 199.6,217.41 199.6,231.004 200.92,231.004 202.24,231.004 202.9,231.004 202.9,239.684 203.56,239.684 204.88,239.684 206.2,239.684 206.2,244.593 207.52,244.593 208.84,244.593 209.5,244.593 209.5,246.628 210.16,246.628 211.48,246.628 212.8,246.628 212.8,246.499 214.12,246.499 215.44,246.499 216.1,246.499 216.1,244.769 216.76,244.769 218.08,244.769 219.4,244.769 219.4,241.889 220.72,241.889 222.04,241.889 222.7,241.889 222.7,238.219 223.36,238.219 224.68,238.219 226,238.219 226,234.048 227.32,234.048 228.64,234.048 229.3,234.048 229.3,229.604 229.96,229.604 231.28,229.604 232.6,229.604 232.6,225.065 233.92,225.065 235.24,225.065 235.9,225.065 235.9,220.573 236.56,220.573 237.88,220.573 239.2,220.573 239.2,216.231 240.52,216.231 241.84,216.231 242.5,216.231 242.5,212.117 243.16,212.117 244.48,212.117 245.8,212.117 245.8,208.287 247.12,208.287 248.44,208.287 249.1,208.287 249.1,204.775 249.76,204.775 251.08,204.775 252.4,204.775 252.4,201.601 253.72,201.601 255.04,201.601 255.7,201.601 255.7,198.772 256.36,198.772 257.68,198.772 259,198.772 259,196.286 260.32,196.286 261.64,196.286 262.3,196.286 262.3,194.133 262.96,194.133 264.28,194.133 265.6,194.133 265.6,192.295 266.92,192.295 268.24,192.295 268.9,192.295 268.9,190.752 269.56,190.752 270.88,190.752 272.2,190.752 272.2,189.482 273.52,189.482 274.84,189.482 275.5,189.482 275.5,188.459 276.16,188.459 277.48,188.459 278.8,188.459 278.8,187.657 280.12,187.657 281.44,187.657 282.1,187.657 282.1,187.05 282.76,187.05 284.08,187.05 285.4,187.05 285.4,186.614 286.72,186.614 288.04,186.614 288.7,186.614 288.7,186.325 289.36,186.325 290.68,186.325 292,186.325 292,186.159 293.32,186.159 294.64,186.159 295.3,186.159 295.3,186.096 295.96,186.096 297.28,186.096 298.6,186.096 298.6,186.117 299.92,186.117 301.24,186.117 301.9,186.117 301.9,186.204 302.56,186.204 303.88,186.204 305.2,186.204 305.2,186.343 306.52,186.343 307.84,186.343 308.5,186.343 308.5,186.519 309.16,186.519 310.48,186.519 311.8,186.519 311.8,186.722 313.12,186.722 314.44,186.722 315.1,186.722 315.1,186.941 315.76,186.941 317.08,186.941 318.4,186.941 318.4,187.168 319.72,187.168 321.04,187.168 321.7,187.168 321.7,187.396 322.36,187.396 323.68,187.396 325,187.396 325,187.62 326.32,187.62 327.64,187.62 328.3,187.62 328.3,187.836 328.96,187.836 330.28,187.836 331.6,187.836 331.6,188.039 332.92,188.039 334.24,188.039 334.9,188.039 334.9,188.229 335.56,188.229 336.88,188.229 338.2,188.229 338.2,188.403 339.52,188.403 340.84,188.403 341.5,188.403 341.5,188.56 342.16,188.56 343.48,188.56 344.8,188.56 344.8,188.701 346.12,188.701 347.44,188.701 348.1,188.701 348.1,188.825 348.76,188.825 350.08,188.825 351.4,188.825 351.4,188.932 352.72,188.932 354.04,188.932 354.7,188.932 354.7,189.025 355.36,189.025 356.68,189.025 358,189.025 358,189.103 359.32,189.103 360.64,189.103 361.3,189.103 361.3,68.1672 361.96,68.1672 363.28,68.1672 364.6,68.1672 364.6,54.0474 365.92,54.0474 367.24,54.0474 367.9,54.0474 367.9,44.8682 368.56,44.8682 369.88,44.8682 371.2,44.8682 371.2,44 372.52,44 373.84,44 374.5,44 375.16,44 376.48,44 377.8,44 379.12,44 380.44,44 381.1,44 381.76,44 383.08,44 384.4,44 385.72,44 387.04,44 387.7,44 388.36,44 389.68,44 391,44 391,45.1569 392.32,45.1569 393.64,45.1569 394.3,45.1569 394.3,49.1174 394.96,49.1174 396.28,49.1174 397.6,49.1174 397.6,53.4201 398.92,53.4201 400.24,53.4201 400.9,53.4201 400.9,57.856 401.56,57.856 402.88,57.856 404.2,57.856 404.2,62.268 405.52,62.268 406.84,62.268 407.5,62.268 407.5,66.539 408.16,66.539 409.48,66.539 410.8,66.539 410.8,70.5846 412.12,70.5846 413.44,70.5846 414.1,70.5846 414.1,74.3467 414.76,74.3467 416.08,74.3467 417.4,74.3467 417.4,77.7883 418.72,77.7883 420.04,77.7883 420.7,77.7883 420.7,80.8893 421.36,80.8893 422.68,80.8893 424,80.8893 424,83.6431 425.32,83.6431 426.64,83.6431 427.3,83.6431 427.3,86.0533 427.96,86.0533 429.28,86.0533 430.6,86.0533 430.6,88.1313 431.92,88.1313 433.24,88.1313 433.9,88.1313 433.9,89.8947 434.56,89.8947 435.88,89.8947 437.2,89.8947 437.2,91.3651 438.52,91.3651 439.84,91.3651 440.5,91.3651 440.5,92.5667 441.16,92.5667 442.48,92.5667 443.8,92.5667 443.8,93.5253 445.12,93.5253 446.44,93.5253 447.1,93.5253 447.1,94.2671 447.76,94.2671 449.08,94.2671 450.4,94.2671 450.4,94.8182 450.4,94.8182 451.72,94.8182 453.04,94.8182 453.7,94.8182 453.7,95.204 454.36,95.204 455.68,95.204 457,95.204 457,95.4485 457,95.4485 458.32,95.4485 459.64,95.4485 460.3,95.4485 460.3,95.5743 460.96,95.5743 462.28,95.5743 463.6,95.5743 463.6,95.6022 464.92,95.6022 466.24,95.6022 466.9,95.6022 466.9,95.5511 467.56,95.5511 468.88,95.5511 470.2,95.5511 470.2,95.438 470.2,95.438 471.52,95.438 472.84,95.438 473.5,95.438 473.5,95.2778 474.16,95.2778 475.48,95.2778 476.8,95.2778 476.8,95.0835 476.8,95.0835 478.12,95.0835 479.44,95.0835 480.1,95.0835 480.1,94.8666 480.76,94.8666 482.08,94.8666 483.4,94.8666 483.4,94.6364 483.4,94.6364 484.72,94.6364 486.04,94.6364 486.7,94.6364 486.7,94.401 487.36,94.401 488.68,94.401 490,94.401 490,94.1667 490,94.1667 491.32,94.1667 492.64,94.1667 493.3,94.1667 493.3,93.9388 493.96,93.9388 495.28,93.9388 496.6,93.9388 496.6,93.7212 496.6,93.7212 497.92,93.7212 499.24,93.7212 499.9,93.7212 499.9,93.5168 500.56,93.5168 501.88,93.5168 503.2,93.5168 503.2,93.3276 503.2,93.3276 504.52,93.3276 505.84,93.3276 506.5,93.3276 506.5,93.155 507.16,93.155 508.48,93.155 509.8,93.155 509.8,92.9996 509.8,92.9996 511.12,92.9996 512.44,92.9996 513.1,92.9996 513.1,92.8616 513.76,92.8616 515.08,92.8616 516.4,92.8616 516.4,92.7406 516.4,92.7406 517.72,92.7406 519.04,92.7406 519.7,92.7406 519.7,92.6359 520.36,92.6359 521.68,92.6359 523,92.6359 523,92.5468 523,92.5468 523,92.5468 524.32,92.5468 525.64,92.5468 526.3,92.5468 526.3,213.472 526.96,213.472 528.28,213.472 529.6,213.472 529.6,227.583 529.6,227.583 530.92,227.583 532.24,227.583 532.9,227.583 532.9,236.754 533.56,236.754 534.88,236.754 536.2,236.754 536.2,242.124 536.2,242.124 537.52,242.124 538.84,242.124 539.5,242.124 539.5,244.584 540.16,244.584 541.48,244.584 542.8,244.584 542.8,244.842 542.8,244.842 544.12,244.842 545.44,244.842 546.1,244.842 546.1,243.459 546.76,243.459 548.08,243.459 549.4,243.459 549.4,240.887 549.4,240.887 550.72,240.887 552.04,240.887 552.7,240.887 552.7,237.487 553.36,237.487 554.68,237.487 556,237.487 556,233.548 556,233.548 557.32,233.548 558.64,233.548 559.3,233.548 559.3,229.301 559.96,229.301 561.28,229.301 562.6,229.301 562.6,224.928 562.6,224.928 563.92,224.928 565.24,224.928 565.9,224.928 565.9,220.57 566.56,220.57 567.88,220.57 569.2,220.57 569.2,216.336 569.2,216.336 570.52,216.336 571.84,216.336 572.5,216.336 572.5,212.306 573.16,212.306 574.48,212.306 575.8,212.306 575.8,208.539 575.8,208.539 577.12,208.539 578.44,208.539 579.1,208.539 579.1,205.071 579.76,205.071 581.08,205.071 582.4,205.071 582.4,201.926 582.4,201.926 583.72,201.926 585.04,201.926 585.7,201.926 585.7,199.113 586.36,199.113 587.68,199.113 589,199.113 589,196.632 590.32,196.632 591.64,196.632 592.3,196.632 592.3,194.474 592.96,194.474 594.28,194.474 595.6,194.474 595.6,192.625 596.92,192.625 598.24,192.625 598.9,192.625 598.9,191.066 599.56,191.066 600.88,191.066 602.2,191.066 602.2,189.775 603.52,189.775 604.84,189.775 605.5,189.775 605.5,188.729 606.16,188.729 607.48,188.729 608.8,188.729 608.8,187.902 610.12,187.902 611.44,187.902 612.1,187.902 612.1,187.27 612.76,187.27 614.08,187.27 615.4,187.27 615.4,186.809 616.72,186.809 618.04,186.809 618.7,186.809 618.7,186.494 619.36,186.494 620.68,186.494 622,186.494 622,186.305 623.32,186.305 624.64,186.305 625.3,186.305 625.3,186.22 625.96,186.22 627.28,186.22 628.6,186.22 628.6,186.22 629.92,186.22 631.24,186.22 631.9,186.22 631.9,186.288 632.56,186.288 633.88,186.288 635.2,186.288 635.2,186.41 636.52,186.41 637.84,186.41 638.5,186.41 638.5,186.571 639.16,186.571 640.48,186.571 641.8,186.571 641.8,186.761 643.12,186.761 644.44,186.761 645.1,186.761 645.1,186.968 645.76,186.968 647.08,186.968 648.4,186.968 648.4,187.185 649.72,187.185 651.04,187.185 651.7,187.185 651.7,187.405 652.36,187.405 653.68,187.405 655,187.405 655,187.623 656.32,187.623 657.64,187.623 658.3,187.623 658.3,187.832 658.96,187.832 660.28,187.832 661.6,187.832 661.6,188.032 662.92,188.032 664.24,188.032 664.9,188.032 664.9,188.218 665.56,188.218 666.88,188.218 668.2,188.218 668.2,188.389 669.52,188.389 670.84,188.389 671.5,188.389 671.5,188.545 672.16,188.545 673.48,188.545 674.8,188.545 674.8,188.685 676.12,188.685 677.44,188.685 678.1,188.685 678.1,188.808 678.76,188.808 680.08,188.808 681.4,188.808 681.4,188.916 682.72,188.916 684.04,188.916 684.7,188.916 684.7,189.009 685.36,189.009 686.68,189.009 688,189.009 " />
</g>

<g fill="none" stroke="#000000" stroke-opacity="1" stroke-width="1" stroke-linecap="square" stroke-linejoin="bevel" transform="matrix(0.885417,0,0,0.885417,0,0)"
font-family="Cantarell" font-size="12.9861" font-weight="400" font-style="normal" 
>
</g>

<g fill="none" stroke="#000000" stroke-opacity="1" stroke-width="1" stroke-linecap="square" stroke-linejoin="bevel" transform="matrix(0.885417,0,0,0.885417,0,0)"
font-family="Cantarell" font-size="12.9861" font-weight="400" font-style="normal" 
>
</g>

<g fill="none" stroke="#000000" stroke-opacity="1" stroke-width="1" stroke-linecap="square" stroke-linejoin="bevel" transform="matrix(0.885417,0,0,0.885417,0,0)"
font-family="Cantarell" font-size="12.9861" font-weight="400" font-style="normal" 
>
</g>

<g fill="none" stroke="#000000" stroke-opacity="1" stroke-width="1" stroke-linecap="square" stroke-linejoin="bevel" transform="matrix(0.885417,0,0,0.885417,0,0)"
font-family="Cantarell" font-size="12.9861" font-weight="400" font-style="normal" 
>
</g>

<g fill="none" stroke="#000000" stroke-opacity="1" stroke-width="1" stroke-linecap="square" stroke-linejoin="bevel" transform="matrix(0.885417,0,0,0.885417,26.5625,1.77083)"
font-family="Cantarell" font-size="12.9861" font-weight="400" font-style="normal" 
>
</g>

<g fill="none" stroke="#f57900" stroke-opacity="1" stroke-dasharray="2,4" stroke-dashoffset="0" stroke-width="2" stroke-linecap="butt" stroke-linejoin="bevel" transform="matrix(1,0,0,1,0,0)"
font-family="Cantarell" font-size="12.9861" font-weight="400" font-style="normal" 
>
<path vector-effect="none" fill-rule="evenodd" d="M26.5625,15.0521 L53.125,15.0521"/>
</g>

<g fill="none" stroke="#000000" stroke-opacity="1" stroke-width="1" stroke-linecap="square" stroke-linejoin="bevel" transform="matrix(0.885417,0,0,0.885417,26.5625,1.77083)"
font-family="Cantarell" font-size="12.9861" font-weight="400" font-style="normal" 
>
</g>

<g fill="none" stroke="#000000" stroke-opacity="1" stroke-width="1" stroke-linecap="square" stroke-linejoin="bevel" transform="matrix(0.885417,0,0,0.885417,0,0)"
font-family="Cantarell" font-size="12.9861" font-weight="400" font-style="normal" 
>
</g>

<g fill="none" stroke="#000000" stroke-opacity="1" stroke-width="1" stroke-linecap="square" stroke-linejoin="bevel" transform="matrix(0.885417,0,0,0.885417,0,0)"
font-family="Cantarell" font-size="15" font-weight="400" font-style="normal" 
>
</g>

<g fill="none" stroke="#000000" stroke-opacity="1" stroke-width="1" stroke-linecap="square" stroke-linejoin="bevel" transform="matrix(0.885417,0,0,0.885417,0,0)"
font-family="Cantarell" font-size="15" font-weight="400" font-style="normal" 
>
<text fill="#000000" fill-opacity="1" stroke="none" xml:space="preserve" x="64" y="22" font-family="Cantarell" font-size="15" font-weight="400" font-style="normal" 
 >y_set_point.y</text>
</g>

<g fill="none" stroke="#000000" stroke-opacity="1" stroke-width="1" stroke-linecap="square" stroke-linejoin="bevel" transform="matrix(0.885417,0,0,0.885417,0,0)"
font-family="Cantarell" font-size="12.9861" font-weight="400" font-style="normal" 
>
</g>

<g fill="none" stroke="#000000" stroke-opacity="1" stroke-width="1" stroke-linecap="square" stroke-linejoin="bevel" transform="matrix(0.885417,0,0,0.885417,0,0)"
font-family="Cantarell" font-size="12.9861" font-weight="400" font-style="normal" 
>
</g>

<g fill="none" stroke="#000000" stroke-opacity="1" stroke-width="1" stroke-linecap="square" stroke-linejoin="bevel" transform="matrix(0.885417,0,0,0.885417,0,0)"
font-family="Cantarell" font-size="12.9861" font-weight="400" font-style="normal" 
>
</g>

<g fill="none" stroke="#000000" stroke-opacity="1" stroke-width="1" stroke-linecap="square" stroke-linejoin="bevel" transform="matrix(0.885417,0,0,0.885417,0,0)"
font-family="Cantarell" font-size="12.9861" font-weight="400" font-style="normal" 
>
</g>

<g fill="none" stroke="#000000" stroke-opacity="1" stroke-width="1" stroke-linecap="square" stroke-linejoin="bevel" transform="matrix(0.885417,0,0,0.885417,145.208,1.77083)"
font-family="Cantarell" font-size="12.9861" font-weight="400" font-style="normal" 
>
</g>

<g fill="none" stroke="#ff0000" stroke-opacity="1" stroke-width="2" stroke-linecap="butt" stroke-linejoin="bevel" transform="matrix(1,0,0,1,0,0)"
font-family="Cantarell" font-size="12.9861" font-weight="400" font-style="normal" 
>
<path vector-effect="none" fill-rule="evenodd" d="M145.208,15.0521 L171.771,15.0521"/>
</g>

<g fill="none" stroke="#000000" stroke-opacity="1" stroke-width="1" stroke-linecap="square" stroke-linejoin="bevel" transform="matrix(0.885417,0,0,0.885417,145.208,1.77083)"
font-family="Cantarell" font-size="12.9861" font-weight="400" font-style="normal" 
>
</g>

<g fill="none" stroke="#000000" stroke-opacity="1" stroke-width="1" stroke-linecap="square" stroke-linejoin="bevel" transform="matrix(0.885417,0,0,0.885417,0,0)"
font-family="Cantarell" font-size="12.9861" font-weight="400" font-style="normal" 
>
</g>

<g fill="none" stroke="#000000" stroke-opacity="1" stroke-width="1" stroke-linecap="square" stroke-linejoin="bevel" transform="matrix(0.885417,0,0,0.885417,0,0)"
font-family="Cantarell" font-size="15" font-weight="400" font-style="normal" 
>
</g>

<g fill="none" stroke="#000000" stroke-opacity="1" stroke-width="1" stroke-linecap="square" stroke-linejoin="bevel" transform="matrix(0.885417,0,0,0.885417,0,0)"
font-family="Cantarell" font-size="15" font-weight="400" font-style="normal" 
>
<text fill="#000000" fill-opacity="1" stroke="none" xml:space="preserve" x="198" y="22" font-family="Cantarell" font-size="15" font-weight="400" font-style="normal" 
 >process.y</text>
</g>

<g fill="none" stroke="#000000" stroke-opacity="1" stroke-width="1" stroke-linecap="square" stroke-linejoin="bevel" transform="matrix(0.885417,0,0,0.885417,0,0)"
font-family="Cantarell" font-size="12.9861" font-weight="400" font-style="normal" 
>
</g>

<g fill="none" stroke="#000000" stroke-opacity="1" stroke-width="1" stroke-linecap="square" stroke-linejoin="bevel" transform="matrix(0.885417,0,0,0.885417,0,0)"
font-family="Cantarell" font-size="12.9861" font-weight="400" font-style="normal" 
>
</g>

<g fill="none" stroke="#000000" stroke-opacity="1" stroke-width="1" stroke-linecap="square" stroke-linejoin="bevel" transform="matrix(0.885417,0,0,0.885417,0,0)"
font-family="Cantarell" font-size="12.9861" font-weight="400" font-style="normal" 
>
</g>

<g fill="none" stroke="#000000" stroke-opacity="1" stroke-width="1" stroke-linecap="square" stroke-linejoin="bevel" transform="matrix(0.885417,0,0,0.885417,0,0)"
font-family="Cantarell" font-size="12.9861" font-weight="400" font-style="normal" 
>
</g>

<g fill="none" stroke="#000000" stroke-opacity="1" stroke-width="1" stroke-linecap="square" stroke-linejoin="bevel" transform="matrix(0.885417,0,0,0.885417,241.719,1.77083)"
font-family="Cantarell" font-size="12.9861" font-weight="400" font-style="normal" 
>
</g>

<g fill="none" stroke="#0059de" stroke-opacity="1" stroke-width="2" stroke-linecap="butt" stroke-linejoin="bevel" transform="matrix(1,0,0,1,0,0)"
font-family="Cantarell" font-size="12.9861" font-weight="400" font-style="normal" 
>
<path vector-effect="none" fill-rule="evenodd" d="M241.719,15.0521 L268.281,15.0521"/>
</g>

<g fill="none" stroke="#000000" stroke-opacity="1" stroke-width="1" stroke-linecap="square" stroke-linejoin="bevel" transform="matrix(0.885417,0,0,0.885417,241.719,1.77083)"
font-family="Cantarell" font-size="12.9861" font-weight="400" font-style="normal" 
>
</g>

<g fill="none" stroke="#000000" stroke-opacity="1" stroke-width="1" stroke-linecap="square" stroke-linejoin="bevel" transform="matrix(0.885417,0,0,0.885417,0,0)"
font-family="Cantarell" font-size="12.9861" font-weight="400" font-style="normal" 
>
</g>

<g fill="none" stroke="#000000" stroke-opacity="1" stroke-width="1" stroke-linecap="square" stroke-linejoin="bevel" transform="matrix(0.885417,0,0,0.885417,0,0)"
font-family="Cantarell" font-size="15" font-weight="400" font-style="normal" 
>
</g>

<g fill="none" stroke="#000000" stroke-opacity="1" stroke-width="1" stroke-linecap="square" stroke-linejoin="bevel" transform="matrix(0.885417,0,0,0.885417,0,0)"
font-family="Cantarell" font-size="15" font-weight="400" font-style="normal" 
>
<text fill="#000000" fill-opacity="1" stroke="none" xml:space="preserve" x="307" y="22" font-family="Cantarell" font-size="15" font-weight="400" font-style="normal" 
 >process.u</text>
</g>

<g fill="none" stroke="#000000" stroke-opacity="1" stroke-width="1" stroke-linecap="square" stroke-linejoin="bevel" transform="matrix(0.885417,0,0,0.885417,0,0)"
font-family="Cantarell" font-size="12.9861" font-weight="400" font-style="normal" 
>
</g>

<g fill="none" stroke="#000000" stroke-opacity="1" stroke-width="1" stroke-linecap="square" stroke-linejoin="bevel" transform="matrix(0.885417,0,0,0.885417,0,0)"
font-family="Cantarell" font-size="12.9861" font-weight="400" font-style="normal" 
>
</g>

<g fill="none" stroke="#000000" stroke-opacity="1" stroke-width="1" stroke-linecap="square" stroke-linejoin="bevel" transform="matrix(0.885417,0,0,0.885417,0,0)"
font-family="Cantarell" font-size="12.9861" font-weight="400" font-style="normal" 
>
</g>

<g fill="none" stroke="#000000" stroke-opacity="1" stroke-width="1" stroke-linecap="square" stroke-linejoin="bevel" transform="matrix(0,-0.885417,0.885417,0,0,257.656)"
font-family="Cantarell" font-size="11.8056" font-weight="400" font-style="normal" 
>
</g>

<g fill="none" stroke="#000000" stroke-opacity="1" stroke-width="1" stroke-linecap="square" stroke-linejoin="bevel" transform="matrix(0,-0.885417,0.885417,0,0,257.656)"
font-family="Cantarell" font-size="12.9861" font-weight="400" font-style="normal" 
>
</g>

<g fill="none" stroke="#000000" stroke-opacity="1" stroke-width="1" stroke-linecap="square" stroke-linejoin="bevel" transform="matrix(0,-0.885417,0.885417,0,0,257.656)"
font-family="Cantarell" font-size="12.9861" font-weight="400" font-style="normal" 
>
</g>

<g fill="none" stroke="#000000" stroke-opacity="1" stroke-width="1" stroke-linecap="square" stroke-linejoin="bevel" transform="matrix(0,-0.885417,0.885417,0,0,257.656)"
font-family="Cantarell" font-size="11.8056" font-weight="400" font-style="normal" 
>
</g>

<g fill="none" stroke="#000000" stroke-opacity="1" stroke-width="1" stroke-linecap="square" stroke-linejoin="bevel" transform="matrix(0.885417,0,0,0.885417,0,0)"
font-family="Cantarell" font-size="12.9861" font-weight="400" font-style="normal" 
>
</g>

<g fill="none" stroke="#000000" stroke-opacity="1" stroke-width="1" stroke-linecap="square" stroke-linejoin="bevel" transform="matrix(0.885417,0,0,0.885417,0,0)"
font-family="Cantarell" font-size="11.8056" font-weight="400" font-style="normal" 
>
</g>

<g fill="none" stroke="#000000" stroke-opacity="1" stroke-width="1" stroke-linecap="square" stroke-linejoin="bevel" transform="matrix(0.885417,0,0,0.885417,0,0)"
font-family="Cantarell" font-size="11.8056" font-weight="400" font-style="normal" 
>
</g>

<g fill="none" stroke="#000000" stroke-opacity="1" stroke-width="1" stroke-linecap="square" stroke-linejoin="bevel" transform="matrix(0.885417,0,0,0.885417,0,0)"
font-family="Cantarell" font-size="11.8056" font-weight="400" font-style="normal" 
>
</g>

<g fill="none" stroke="#000000" stroke-opacity="1" stroke-width="1" stroke-linecap="square" stroke-linejoin="bevel" transform="matrix(0.885417,0,0,0.885417,6.19792,248.802)"
font-family="Cantarell" font-size="11.8056" font-weight="400" font-style="normal" 
>
</g>

<g fill="none" stroke="#000000" stroke-opacity="1" stroke-width="1" stroke-linecap="square" stroke-linejoin="bevel" transform="matrix(0.885417,0,0,0.885417,6.19792,248.802)"
font-family="Cantarell" font-size="13" font-weight="400" font-style="normal" 
>
</g>

<g fill="none" stroke="#000000" stroke-opacity="1" stroke-width="1" stroke-linecap="square" stroke-linejoin="bevel" transform="matrix(0.885417,0,0,0.885417,6.19792,248.802)"
font-family="Cantarell" font-size="13" font-weight="400" font-style="normal" 
>
<text fill="#000000" fill-opacity="1" stroke="none" xml:space="preserve" x="0" y="10" font-family="Cantarell" font-size="13" font-weight="400" font-style="normal" 
 >0</text>
</g>

<g fill="none" stroke="#000000" stroke-opacity="1" stroke-width="1" stroke-linecap="square" stroke-linejoin="bevel" transform="matrix(0.885417,0,0,0.885417,6.19792,248.802)"
font-family="Cantarell" font-size="11.8056" font-weight="400" font-style="normal" 
>
</g>

<g fill="none" stroke="#000000" stroke-opacity="1" stroke-width="1" stroke-linecap="square" stroke-linejoin="bevel" transform="matrix(0.885417,0,0,0.885417,6.19792,248.802)"
font-family="Cantarell" font-size="11.8056" font-weight="400" font-style="normal" 
>
</g>

<g fill="none" stroke="#000000" stroke-opacity="1" stroke-width="1" stroke-linecap="square" stroke-linejoin="bevel" transform="matrix(0.885417,0,0,0.885417,0,0)"
font-family="Cantarell" font-size="11.8056" font-weight="400" font-style="normal" 
>
</g>

<g fill="none" stroke="#000000" stroke-opacity="1" stroke-width="1" stroke-linecap="square" stroke-linejoin="bevel" transform="matrix(0.885417,0,0,0.885417,6.19792,205.948)"
font-family="Cantarell" font-size="11.8056" font-weight="400" font-style="normal" 
>
</g>

<g fill="none" stroke="#000000" stroke-opacity="1" stroke-width="1" stroke-linecap="square" stroke-linejoin="bevel" transform="matrix(0.885417,0,0,0.885417,6.19792,205.948)"
font-family="Cantarell" font-size="13" font-weight="400" font-style="normal" 
>
</g>

<g fill="none" stroke="#000000" stroke-opacity="1" stroke-width="1" stroke-linecap="square" stroke-linejoin="bevel" transform="matrix(0.885417,0,0,0.885417,6.19792,205.948)"
font-family="Cantarell" font-size="13" font-weight="400" font-style="normal" 
>
<text fill="#000000" fill-opacity="1" stroke="none" xml:space="preserve" x="0" y="10" font-family="Cantarell" font-size="13" font-weight="400" font-style="normal" 
 >2</text>
</g>

<g fill="none" stroke="#000000" stroke-opacity="1" stroke-width="1" stroke-linecap="square" stroke-linejoin="bevel" transform="matrix(0.885417,0,0,0.885417,6.19792,205.948)"
font-family="Cantarell" font-size="11.8056" font-weight="400" font-style="normal" 
>
</g>

<g fill="none" stroke="#000000" stroke-opacity="1" stroke-width="1" stroke-linecap="square" stroke-linejoin="bevel" transform="matrix(0.885417,0,0,0.885417,6.19792,205.948)"
font-family="Cantarell" font-size="11.8056" font-weight="400" font-style="normal" 
>
</g>

<g fill="none" stroke="#000000" stroke-opacity="1" stroke-width="1" stroke-linecap="square" stroke-linejoin="bevel" transform="matrix(0.885417,0,0,0.885417,0,0)"
font-family="Cantarell" font-size="11.8056" font-weight="400" font-style="normal" 
>
</g>

<g fill="none" stroke="#000000" stroke-opacity="1" stroke-width="1" stroke-linecap="square" stroke-linejoin="bevel" transform="matrix(0.885417,0,0,0.885417,5.3125,163.094)"
font-family="Cantarell" font-size="11.8056" font-weight="400" font-style="normal" 
>
</g>

<g fill="none" stroke="#000000" stroke-opacity="1" stroke-width="1" stroke-linecap="square" stroke-linejoin="bevel" transform="matrix(0.885417,0,0,0.885417,5.3125,163.094)"
font-family="Cantarell" font-size="13" font-weight="400" font-style="normal" 
>
</g>

<g fill="none" stroke="#000000" stroke-opacity="1" stroke-width="1" stroke-linecap="square" stroke-linejoin="bevel" transform="matrix(0.885417,0,0,0.885417,5.3125,163.094)"
font-family="Cantarell" font-size="13" font-weight="400" font-style="normal" 
>
<text fill="#000000" fill-opacity="1" stroke="none" xml:space="preserve" x="0" y="10" font-family="Cantarell" font-size="13" font-weight="400" font-style="normal" 
 >4</text>
</g>

<g fill="none" stroke="#000000" stroke-opacity="1" stroke-width="1" stroke-linecap="square" stroke-linejoin="bevel" transform="matrix(0.885417,0,0,0.885417,5.3125,163.094)"
font-family="Cantarell" font-size="11.8056" font-weight="400" font-style="normal" 
>
</g>

<g fill="none" stroke="#000000" stroke-opacity="1" stroke-width="1" stroke-linecap="square" stroke-linejoin="bevel" transform="matrix(0.885417,0,0,0.885417,5.3125,163.094)"
font-family="Cantarell" font-size="11.8056" font-weight="400" font-style="normal" 
>
</g>

<g fill="none" stroke="#000000" stroke-opacity="1" stroke-width="1" stroke-linecap="square" stroke-linejoin="bevel" transform="matrix(0.885417,0,0,0.885417,0,0)"
font-family="Cantarell" font-size="11.8056" font-weight="400" font-style="normal" 
>
</g>

<g fill="none" stroke="#000000" stroke-opacity="1" stroke-width="1" stroke-linecap="square" stroke-linejoin="bevel" transform="matrix(0.885417,0,0,0.885417,6.19792,120.24)"
font-family="Cantarell" font-size="11.8056" font-weight="400" font-style="normal" 
>
</g>

<g fill="none" stroke="#000000" stroke-opacity="1" stroke-width="1" stroke-linecap="square" stroke-linejoin="bevel" transform="matrix(0.885417,0,0,0.885417,6.19792,120.24)"
font-family="Cantarell" font-size="13" font-weight="400" font-style="normal" 
>
</g>

<g fill="none" stroke="#000000" stroke-opacity="1" stroke-width="1" stroke-linecap="square" stroke-linejoin="bevel" transform="matrix(0.885417,0,0,0.885417,6.19792,120.24)"
font-family="Cantarell" font-size="13" font-weight="400" font-style="normal" 
>
<text fill="#000000" fill-opacity="1" stroke="none" xml:space="preserve" x="0" y="10" font-family="Cantarell" font-size="13" font-weight="400" font-style="normal" 
 >6</text>
</g>

<g fill="none" stroke="#000000" stroke-opacity="1" stroke-width="1" stroke-linecap="square" stroke-linejoin="bevel" transform="matrix(0.885417,0,0,0.885417,6.19792,120.24)"
font-family="Cantarell" font-size="11.8056" font-weight="400" font-style="normal" 
>
</g>

<g fill="none" stroke="#000000" stroke-opacity="1" stroke-width="1" stroke-linecap="square" stroke-linejoin="bevel" transform="matrix(0.885417,0,0,0.885417,6.19792,120.24)"
font-family="Cantarell" font-size="11.8056" font-weight="400" font-style="normal" 
>
</g>

<g fill="none" stroke="#000000" stroke-opacity="1" stroke-width="1" stroke-linecap="square" stroke-linejoin="bevel" transform="matrix(0.885417,0,0,0.885417,0,0)"
font-family="Cantarell" font-size="11.8056" font-weight="400" font-style="normal" 
>
</g>

<g fill="none" stroke="#000000" stroke-opacity="1" stroke-width="1" stroke-linecap="square" stroke-linejoin="bevel" transform="matrix(0.885417,0,0,0.885417,6.19792,77.3854)"
font-family="Cantarell" font-size="11.8056" font-weight="400" font-style="normal" 
>
</g>

<g fill="none" stroke="#000000" stroke-opacity="1" stroke-width="1" stroke-linecap="square" stroke-linejoin="bevel" transform="matrix(0.885417,0,0,0.885417,6.19792,77.3854)"
font-family="Cantarell" font-size="13" font-weight="400" font-style="normal" 
>
</g>

<g fill="none" stroke="#000000" stroke-opacity="1" stroke-width="1" stroke-linecap="square" stroke-linejoin="bevel" transform="matrix(0.885417,0,0,0.885417,6.19792,77.3854)"
font-family="Cantarell" font-size="13" font-weight="400" font-style="normal" 
>
<text fill="#000000" fill-opacity="1" stroke="none" xml:space="preserve" x="0" y="10" font-family="Cantarell" font-size="13" font-weight="400" font-style="normal" 
 >8</text>
</g>

<g fill="none" stroke="#000000" stroke-opacity="1" stroke-width="1" stroke-linecap="square" stroke-linejoin="bevel" transform="matrix(0.885417,0,0,0.885417,6.19792,77.3854)"
font-family="Cantarell" font-size="11.8056" font-weight="400" font-style="normal" 
>
</g>

<g fill="none" stroke="#000000" stroke-opacity="1" stroke-width="1" stroke-linecap="square" stroke-linejoin="bevel" transform="matrix(0.885417,0,0,0.885417,6.19792,77.3854)"
font-family="Cantarell" font-size="11.8056" font-weight="400" font-style="normal" 
>
</g>

<g fill="none" stroke="#000000" stroke-opacity="1" stroke-width="1" stroke-linecap="square" stroke-linejoin="bevel" transform="matrix(0.885417,0,0,0.885417,0,0)"
font-family="Cantarell" font-size="11.8056" font-weight="400" font-style="normal" 
>
</g>

<g fill="none" stroke="#000000" stroke-opacity="1" stroke-width="1" stroke-linecap="square" stroke-linejoin="bevel" transform="matrix(0.885417,0,0,0.885417,0,34.5313)"
font-family="Cantarell" font-size="11.8056" font-weight="400" font-style="normal" 
>
</g>

<g fill="none" stroke="#000000" stroke-opacity="1" stroke-width="1" stroke-linecap="square" stroke-linejoin="bevel" transform="matrix(0.885417,0,0,0.885417,0,34.5313)"
font-family="Cantarell" font-size="13" font-weight="400" font-style="normal" 
>
</g>

<g fill="none" stroke="#000000" stroke-opacity="1" stroke-width="1" stroke-linecap="square" stroke-linejoin="bevel" transform="matrix(0.885417,0,0,0.885417,0,34.5313)"
font-family="Cantarell" font-size="13" font-weight="400" font-style="normal" 
>
<text fill="#000000" fill-opacity="1" stroke="none" xml:space="preserve" x="0" y="10" font-family="Cantarell" font-size="13" font-weight="400" font-style="normal" 
 >10</text>
</g>

<g fill="none" stroke="#000000" stroke-opacity="1" stroke-width="1" stroke-linecap="square" stroke-linejoin="bevel" transform="matrix(0.885417,0,0,0.885417,0,34.5313)"
font-family="Cantarell" font-size="11.8056" font-weight="400" font-style="normal" 
>
</g>

<g fill="none" stroke="#000000" stroke-opacity="1" stroke-width="1" stroke-linecap="square" stroke-linejoin="bevel" transform="matrix(0.885417,0,0,0.885417,0,34.5313)"
font-family="Cantarell" font-size="11.8056" font-weight="400" font-style="normal" 
>
</g>

<g fill="none" stroke="#000000" stroke-opacity="1" stroke-width="1" stroke-linecap="square" stroke-linejoin="bevel" transform="matrix(0.885417,0,0,0.885417,0,0)"
font-family="Cantarell" font-size="11.8056" font-weight="400" font-style="normal" 
>
</g>

<g fill="none" stroke="#000000" stroke-opacity="1" stroke-width="1" stroke-linecap="square" stroke-linejoin="bevel" transform="matrix(0.885417,0,0,0.885417,0,0)"
font-family="Cantarell" font-size="11.8056" font-weight="400" font-style="normal" 
>
</g>

<g fill="none" stroke="#000000" stroke-opacity="1" stroke-width="1" stroke-linecap="butt" stroke-linejoin="bevel" transform="matrix(0.885417,0,0,0.885417,0,0)"
font-family="Cantarell" font-size="11.8056" font-weight="400" font-style="normal" 
>
<polyline fill="none" vector-effect="non-scaling-stroke" points="27,273.9 23,273.9 " />
<polyline fill="none" vector-effect="non-scaling-stroke" points="27,249.7 23,249.7 " />
<polyline fill="none" vector-effect="non-scaling-stroke" points="27,225.5 23,225.5 " />
<polyline fill="none" vector-effect="non-scaling-stroke" points="27,201.3 23,201.3 " />
<polyline fill="none" vector-effect="non-scaling-stroke" points="27,177.1 23,177.1 " />
<polyline fill="none" vector-effect="non-scaling-stroke" points="27,152.9 23,152.9 " />
<polyline fill="none" vector-effect="non-scaling-stroke" points="27,128.7 23,128.7 " />
<polyline fill="none" vector-effect="non-scaling-stroke" points="27,104.5 23,104.5 " />
<polyline fill="none" vector-effect="non-scaling-stroke" points="27,80.3 23,80.3 " />
<polyline fill="none" vector-effect="non-scaling-stroke" points="27,56.1 23,56.1 " />
<polyline fill="none" vector-effect="non-scaling-stroke" points="27,261.8 21,261.8 " />
<polyline fill="none" vector-effect="non-scaling-stroke" points="27,213.4 21,213.4 " />
<polyline fill="none" vector-effect="non-scaling-stroke" points="27,165 21,165 " />
<polyline fill="none" vector-effect="non-scaling-stroke" points="27,116.6 21,116.6 " />
<polyline fill="none" vector-effect="non-scaling-stroke" points="27,68.2 21,68.2 " />
<polyline fill="none" vector-effect="non-scaling-stroke" points="27,286 19,286 " />
<polyline fill="none" vector-effect="non-scaling-stroke" points="27,237.6 19,237.6 " />
<polyline fill="none" vector-effect="non-scaling-stroke" points="27,189.2 19,189.2 " />
<polyline fill="none" vector-effect="non-scaling-stroke" points="27,140.8 19,140.8 " />
<polyline fill="none" vector-effect="non-scaling-stroke" points="27,92.4 19,92.4 " />
<polyline fill="none" vector-effect="non-scaling-stroke" points="27,44 19,44 " />
</g>

<g fill="none" stroke="#000000" stroke-opacity="1" stroke-width="1" stroke-linecap="square" stroke-linejoin="bevel" transform="matrix(0.885417,0,0,0.885417,0,0)"
font-family="Cantarell" font-size="11.8056" font-weight="400" font-style="normal" 
>
</g>

<g fill="none" stroke="#000000" stroke-opacity="1" stroke-width="1" stroke-linecap="butt" stroke-linejoin="bevel" transform="matrix(0.885417,0,0,0.885417,0,0)"
font-family="Cantarell" font-size="11.8056" font-weight="400" font-style="normal" 
>
<polyline fill="none" vector-effect="non-scaling-stroke" points="27,44 27,286 " />
</g>

<g fill="none" stroke="#000000" stroke-opacity="1" stroke-width="1" stroke-linecap="square" stroke-linejoin="bevel" transform="matrix(0.885417,0,0,0.885417,0,0)"
font-family="Cantarell" font-size="11.8056" font-weight="400" font-style="normal" 
>
</g>

<g fill="none" stroke="#000000" stroke-opacity="1" stroke-width="1" stroke-linecap="square" stroke-linejoin="bevel" transform="matrix(0.885417,0,0,0.885417,0,0)"
font-family="Cantarell" font-size="11.8056" font-weight="400" font-style="normal" 
>
</g>

<g fill="none" stroke="#000000" stroke-opacity="1" stroke-width="1" stroke-linecap="square" stroke-linejoin="bevel" transform="matrix(0.885417,0,0,0.885417,0,0)"
font-family="Cantarell" font-size="12.9861" font-weight="400" font-style="normal" 
>
</g>

<g fill="none" stroke="#000000" stroke-opacity="1" stroke-width="1" stroke-linecap="square" stroke-linejoin="bevel" transform="matrix(0.885417,0,0,0.885417,21.25,276.25)"
font-family="Cantarell" font-size="11.8056" font-weight="400" font-style="normal" 
>
</g>

<g fill="none" stroke="#000000" stroke-opacity="1" stroke-width="1" stroke-linecap="square" stroke-linejoin="bevel" transform="matrix(0.885417,0,0,0.885417,21.25,276.25)"
font-family="Cantarell" font-size="12.9861" font-weight="400" font-style="normal" 
>
</g>

<g fill="none" stroke="#000000" stroke-opacity="1" stroke-width="1" stroke-linecap="square" stroke-linejoin="bevel" transform="matrix(0.885417,0,0,0.885417,21.25,276.25)"
font-family="Cantarell" font-size="15" font-weight="400" font-style="normal" 
>
</g>

<g fill="none" stroke="#000000" stroke-opacity="1" stroke-width="1" stroke-linecap="square" stroke-linejoin="bevel" transform="matrix(0.885417,0,0,0.885417,21.25,276.25)"
font-family="Cantarell" font-size="15" font-weight="400" font-style="normal" 
>
<text fill="#000000" fill-opacity="1" stroke="none" xml:space="preserve" x="311" y="16" font-family="Cantarell" font-size="15" font-weight="400" font-style="normal" 
 >time (s)</text>
</g>

<g fill="none" stroke="#000000" stroke-opacity="1" stroke-width="1" stroke-linecap="square" stroke-linejoin="bevel" transform="matrix(0.885417,0,0,0.885417,21.25,276.25)"
font-family="Cantarell" font-size="12.9861" font-weight="400" font-style="normal" 
>
</g>

<g fill="none" stroke="#000000" stroke-opacity="1" stroke-width="1" stroke-linecap="square" stroke-linejoin="bevel" transform="matrix(0.885417,0,0,0.885417,21.25,276.25)"
font-family="Cantarell" font-size="11.8056" font-weight="400" font-style="normal" 
>
</g>

<g fill="none" stroke="#000000" stroke-opacity="1" stroke-width="1" stroke-linecap="square" stroke-linejoin="bevel" transform="matrix(0.885417,0,0,0.885417,0,0)"
font-family="Cantarell" font-size="12.9861" font-weight="400" font-style="normal" 
>
</g>

<g fill="none" stroke="#000000" stroke-opacity="1" stroke-width="1" stroke-linecap="square" stroke-linejoin="bevel" transform="matrix(0.885417,0,0,0.885417,0,0)"
font-family="Cantarell" font-size="11.8056" font-weight="400" font-style="normal" 
>
</g>

<g fill="none" stroke="#000000" stroke-opacity="1" stroke-width="1" stroke-linecap="square" stroke-linejoin="bevel" transform="matrix(0.885417,0,0,0.885417,0,0)"
font-family="Cantarell" font-size="11.8056" font-weight="400" font-style="normal" 
>
</g>

<g fill="none" stroke="#000000" stroke-opacity="1" stroke-width="1" stroke-linecap="square" stroke-linejoin="bevel" transform="matrix(0.885417,0,0,0.885417,0,0)"
font-family="Cantarell" font-size="11.8056" font-weight="400" font-style="normal" 
>
</g>

<g fill="none" stroke="#000000" stroke-opacity="1" stroke-width="1" stroke-linecap="square" stroke-linejoin="bevel" transform="matrix(0.885417,0,0,0.885417,21.6927,265.625)"
font-family="Cantarell" font-size="11.8056" font-weight="400" font-style="normal" 
>
</g>

<g fill="none" stroke="#000000" stroke-opacity="1" stroke-width="1" stroke-linecap="square" stroke-linejoin="bevel" transform="matrix(0.885417,0,0,0.885417,21.6927,265.625)"
font-family="Cantarell" font-size="13" font-weight="400" font-style="normal" 
>
</g>

<g fill="none" stroke="#000000" stroke-opacity="1" stroke-width="1" stroke-linecap="square" stroke-linejoin="bevel" transform="matrix(0.885417,0,0,0.885417,21.6927,265.625)"
font-family="Cantarell" font-size="13" font-weight="400" font-style="normal" 
>
<text fill="#000000" fill-opacity="1" stroke="none" xml:space="preserve" x="0" y="10" font-family="Cantarell" font-size="13" font-weight="400" font-style="normal" 
 >0</text>
</g>

<g fill="none" stroke="#000000" stroke-opacity="1" stroke-width="1" stroke-linecap="square" stroke-linejoin="bevel" transform="matrix(0.885417,0,0,0.885417,21.6927,265.625)"
font-family="Cantarell" font-size="11.8056" font-weight="400" font-style="normal" 
>
</g>

<g fill="none" stroke="#000000" stroke-opacity="1" stroke-width="1" stroke-linecap="square" stroke-linejoin="bevel" transform="matrix(0.885417,0,0,0.885417,21.6927,265.625)"
font-family="Cantarell" font-size="11.8056" font-weight="400" font-style="normal" 
>
</g>

<g fill="none" stroke="#000000" stroke-opacity="1" stroke-width="1" stroke-linecap="square" stroke-linejoin="bevel" transform="matrix(0.885417,0,0,0.885417,0,0)"
font-family="Cantarell" font-size="11.8056" font-weight="400" font-style="normal" 
>
</g>

<g fill="none" stroke="#000000" stroke-opacity="1" stroke-width="1" stroke-linecap="square" stroke-linejoin="bevel" transform="matrix(0.885417,0,0,0.885417,167.786,265.625)"
font-family="Cantarell" font-size="11.8056" font-weight="400" font-style="normal" 
>
</g>

<g fill="none" stroke="#000000" stroke-opacity="1" stroke-width="1" stroke-linecap="square" stroke-linejoin="bevel" transform="matrix(0.885417,0,0,0.885417,167.786,265.625)"
font-family="Cantarell" font-size="13" font-weight="400" font-style="normal" 
>
</g>

<g fill="none" stroke="#000000" stroke-opacity="1" stroke-width="1" stroke-linecap="square" stroke-linejoin="bevel" transform="matrix(0.885417,0,0,0.885417,167.786,265.625)"
font-family="Cantarell" font-size="13" font-weight="400" font-style="normal" 
>
<text fill="#000000" fill-opacity="1" stroke="none" xml:space="preserve" x="0" y="10" font-family="Cantarell" font-size="13" font-weight="400" font-style="normal" 
 >5</text>
</g>

<g fill="none" stroke="#000000" stroke-opacity="1" stroke-width="1" stroke-linecap="square" stroke-linejoin="bevel" transform="matrix(0.885417,0,0,0.885417,167.786,265.625)"
font-family="Cantarell" font-size="11.8056" font-weight="400" font-style="normal" 
>
</g>

<g fill="none" stroke="#000000" stroke-opacity="1" stroke-width="1" stroke-linecap="square" stroke-linejoin="bevel" transform="matrix(0.885417,0,0,0.885417,167.786,265.625)"
font-family="Cantarell" font-size="11.8056" font-weight="400" font-style="normal" 
>
</g>

<g fill="none" stroke="#000000" stroke-opacity="1" stroke-width="1" stroke-linecap="square" stroke-linejoin="bevel" transform="matrix(0.885417,0,0,0.885417,0,0)"
font-family="Cantarell" font-size="11.8056" font-weight="400" font-style="normal" 
>
</g>

<g fill="none" stroke="#000000" stroke-opacity="1" stroke-width="1" stroke-linecap="square" stroke-linejoin="bevel" transform="matrix(0.885417,0,0,0.885417,310.781,265.625)"
font-family="Cantarell" font-size="11.8056" font-weight="400" font-style="normal" 
>
</g>

<g fill="none" stroke="#000000" stroke-opacity="1" stroke-width="1" stroke-linecap="square" stroke-linejoin="bevel" transform="matrix(0.885417,0,0,0.885417,310.781,265.625)"
font-family="Cantarell" font-size="13" font-weight="400" font-style="normal" 
>
</g>

<g fill="none" stroke="#000000" stroke-opacity="1" stroke-width="1" stroke-linecap="square" stroke-linejoin="bevel" transform="matrix(0.885417,0,0,0.885417,310.781,265.625)"
font-family="Cantarell" font-size="13" font-weight="400" font-style="normal" 
>
<text fill="#000000" fill-opacity="1" stroke="none" xml:space="preserve" x="0" y="10" font-family="Cantarell" font-size="13" font-weight="400" font-style="normal" 
 >10</text>
</g>

<g fill="none" stroke="#000000" stroke-opacity="1" stroke-width="1" stroke-linecap="square" stroke-linejoin="bevel" transform="matrix(0.885417,0,0,0.885417,310.781,265.625)"
font-family="Cantarell" font-size="11.8056" font-weight="400" font-style="normal" 
>
</g>

<g fill="none" stroke="#000000" stroke-opacity="1" stroke-width="1" stroke-linecap="square" stroke-linejoin="bevel" transform="matrix(0.885417,0,0,0.885417,310.781,265.625)"
font-family="Cantarell" font-size="11.8056" font-weight="400" font-style="normal" 
>
</g>

<g fill="none" stroke="#000000" stroke-opacity="1" stroke-width="1" stroke-linecap="square" stroke-linejoin="bevel" transform="matrix(0.885417,0,0,0.885417,0,0)"
font-family="Cantarell" font-size="11.8056" font-weight="400" font-style="normal" 
>
</g>

<g fill="none" stroke="#000000" stroke-opacity="1" stroke-width="1" stroke-linecap="square" stroke-linejoin="bevel" transform="matrix(0.885417,0,0,0.885417,456.875,265.625)"
font-family="Cantarell" font-size="11.8056" font-weight="400" font-style="normal" 
>
</g>

<g fill="none" stroke="#000000" stroke-opacity="1" stroke-width="1" stroke-linecap="square" stroke-linejoin="bevel" transform="matrix(0.885417,0,0,0.885417,456.875,265.625)"
font-family="Cantarell" font-size="13" font-weight="400" font-style="normal" 
>
</g>

<g fill="none" stroke="#000000" stroke-opacity="1" stroke-width="1" stroke-linecap="square" stroke-linejoin="bevel" transform="matrix(0.885417,0,0,0.885417,456.875,265.625)"
font-family="Cantarell" font-size="13" font-weight="400" font-style="normal" 
>
<text fill="#000000" fill-opacity="1" stroke="none" xml:space="preserve" x="0" y="10" font-family="Cantarell" font-size="13" font-weight="400" font-style="normal" 
 >15</text>
</g>

<g fill="none" stroke="#000000" stroke-opacity="1" stroke-width="1" stroke-linecap="square" stroke-linejoin="bevel" transform="matrix(0.885417,0,0,0.885417,456.875,265.625)"
font-family="Cantarell" font-size="11.8056" font-weight="400" font-style="normal" 
>
</g>

<g fill="none" stroke="#000000" stroke-opacity="1" stroke-width="1" stroke-linecap="square" stroke-linejoin="bevel" transform="matrix(0.885417,0,0,0.885417,456.875,265.625)"
font-family="Cantarell" font-size="11.8056" font-weight="400" font-style="normal" 
>
</g>

<g fill="none" stroke="#000000" stroke-opacity="1" stroke-width="1" stroke-linecap="square" stroke-linejoin="bevel" transform="matrix(0.885417,0,0,0.885417,0,0)"
font-family="Cantarell" font-size="11.8056" font-weight="400" font-style="normal" 
>
</g>

<g fill="none" stroke="#000000" stroke-opacity="1" stroke-width="1" stroke-linecap="square" stroke-linejoin="bevel" transform="matrix(0.885417,0,0,0.885417,602.969,265.625)"
font-family="Cantarell" font-size="11.8056" font-weight="400" font-style="normal" 
>
</g>

<g fill="none" stroke="#000000" stroke-opacity="1" stroke-width="1" stroke-linecap="square" stroke-linejoin="bevel" transform="matrix(0.885417,0,0,0.885417,602.969,265.625)"
font-family="Cantarell" font-size="13" font-weight="400" font-style="normal" 
>
</g>

<g fill="none" stroke="#000000" stroke-opacity="1" stroke-width="1" stroke-linecap="square" stroke-linejoin="bevel" transform="matrix(0.885417,0,0,0.885417,602.969,265.625)"
font-family="Cantarell" font-size="13" font-weight="400" font-style="normal" 
>
<text fill="#000000" fill-opacity="1" stroke="none" xml:space="preserve" x="0" y="10" font-family="Cantarell" font-size="13" font-weight="400" font-style="normal" 
 >20</text>
</g>

<g fill="none" stroke="#000000" stroke-opacity="1" stroke-width="1" stroke-linecap="square" stroke-linejoin="bevel" transform="matrix(0.885417,0,0,0.885417,602.969,265.625)"
font-family="Cantarell" font-size="11.8056" font-weight="400" font-style="normal" 
>
</g>

<g fill="none" stroke="#000000" stroke-opacity="1" stroke-width="1" stroke-linecap="square" stroke-linejoin="bevel" transform="matrix(0.885417,0,0,0.885417,602.969,265.625)"
font-family="Cantarell" font-size="11.8056" font-weight="400" font-style="normal" 
>
</g>

<g fill="none" stroke="#000000" stroke-opacity="1" stroke-width="1" stroke-linecap="square" stroke-linejoin="bevel" transform="matrix(0.885417,0,0,0.885417,0,0)"
font-family="Cantarell" font-size="11.8056" font-weight="400" font-style="normal" 
>
</g>

<g fill="none" stroke="#000000" stroke-opacity="1" stroke-width="1" stroke-linecap="square" stroke-linejoin="bevel" transform="matrix(0.885417,0,0,0.885417,0,0)"
font-family="Cantarell" font-size="11.8056" font-weight="400" font-style="normal" 
>
</g>

<g fill="none" stroke="#000000" stroke-opacity="1" stroke-width="1" stroke-linecap="butt" stroke-linejoin="bevel" transform="matrix(0.885417,0,0,0.885417,0,0)"
font-family="Cantarell" font-size="11.8056" font-weight="400" font-style="normal" 
>
<polyline fill="none" vector-effect="non-scaling-stroke" points="61,287 61,291 " />
<polyline fill="none" vector-effect="non-scaling-stroke" points="94,287 94,291 " />
<polyline fill="none" vector-effect="non-scaling-stroke" points="127,287 127,291 " />
<polyline fill="none" vector-effect="non-scaling-stroke" points="160,287 160,291 " />
<polyline fill="none" vector-effect="non-scaling-stroke" points="226,287 226,291 " />
<polyline fill="none" vector-effect="non-scaling-stroke" points="259,287 259,291 " />
<polyline fill="none" vector-effect="non-scaling-stroke" points="292,287 292,291 " />
<polyline fill="none" vector-effect="non-scaling-stroke" points="325,287 325,291 " />
<polyline fill="none" vector-effect="non-scaling-stroke" points="391,287 391,291 " />
<polyline fill="none" vector-effect="non-scaling-stroke" points="424,287 424,291 " />
<polyline fill="none" vector-effect="non-scaling-stroke" points="457,287 457,291 " />
<polyline fill="none" vector-effect="non-scaling-stroke" points="490,287 490,291 " />
<polyline fill="none" vector-effect="non-scaling-stroke" points="556,287 556,291 " />
<polyline fill="none" vector-effect="non-scaling-stroke" points="589,287 589,291 " />
<polyline fill="none" vector-effect="non-scaling-stroke" points="622,287 622,291 " />
<polyline fill="none" vector-effect="non-scaling-stroke" points="655,287 655,291 " />
<polyline fill="none" vector-effect="non-scaling-stroke" points="28,287 28,295 " />
<polyline fill="none" vector-effect="non-scaling-stroke" points="193,287 193,295 " />
<polyline fill="none" vector-effect="non-scaling-stroke" points="358,287 358,295 " />
<polyline fill="none" vector-effect="non-scaling-stroke" points="523,287 523,295 " />
<polyline fill="none" vector-effect="non-scaling-stroke" points="688,287 688,295 " />
</g>

<g fill="none" stroke="#000000" stroke-opacity="1" stroke-width="1" stroke-linecap="square" stroke-linejoin="bevel" transform="matrix(0.885417,0,0,0.885417,0,0)"
font-family="Cantarell" font-size="11.8056" font-weight="400" font-style="normal" 
>
</g>

<g fill="none" stroke="#000000" stroke-opacity="1" stroke-width="1" stroke-linecap="butt" stroke-linejoin="bevel" transform="matrix(0.885417,0,0,0.885417,0,0)"
font-family="Cantarell" font-size="11.8056" font-weight="400" font-style="normal" 
>
<polyline fill="none" vector-effect="non-scaling-stroke" points="28,287 688,287 " />
</g>

<g fill="none" stroke="#000000" stroke-opacity="1" stroke-width="1" stroke-linecap="square" stroke-linejoin="bevel" transform="matrix(0.885417,0,0,0.885417,0,0)"
font-family="Cantarell" font-size="11.8056" font-weight="400" font-style="normal" 
>
</g>

<g fill="none" stroke="#000000" stroke-opacity="1" stroke-width="1" stroke-linecap="square" stroke-linejoin="bevel" transform="matrix(0.885417,0,0,0.885417,0,0)"
font-family="Cantarell" font-size="11.8056" font-weight="400" font-style="normal" 
>
</g>

<g fill="none" stroke="#000000" stroke-opacity="1" stroke-width="1" stroke-linecap="square" stroke-linejoin="bevel" transform="matrix(0.885417,0,0,0.885417,0,0)"
font-family="Cantarell" font-size="12.9861" font-weight="400" font-style="normal" 
>
</g>

<g fill="none" stroke="#000000" stroke-opacity="1" stroke-width="1" stroke-linecap="square" stroke-linejoin="bevel" transform="matrix(1,0,0,1,0,0)"
font-family="Cantarell" font-size="12.9861" font-weight="400" font-style="normal" 
>
</g>
</g>
</svg>
